<?xml version="1.0" encoding="UTF-8" standalone="no"?>
<!-- Created with Inkscape (http://www.inkscape.org/) -->

<svg
   width="50"
   height="50"
   viewBox="0 0 13.229166 13.229167"
   version="1.1"
   id="svg1"
   xml:space="preserve"
   xmlns="http://www.w3.org/2000/svg"
   xmlns:svg="http://www.w3.org/2000/svg"><defs
     id="defs1" /><g
     id="layer1"><path
       style="fill:#000000;stroke-width:0.0313416"
       d="M 3.6317847,13.182558 C 2.4010437,13.080125 1.3583268,12.083513 1.1339294,10.879458 0.37280067,7.9710824 0.52488567,4.8545954 1.3872205,1.9865784 c 0.4364526,-1.285371 1.8746022,-2.198228 3.2216062,-1.832784 2.839048,0.699955 5.373501,2.406172 7.3015363,4.578379 0.984285,1.219891 0.852613,3.140577 -0.275792,4.225366 -1.9527623,2.1013386 -4.5508373,3.6155646 -7.3601203,4.2137856 -0.213462,0.01865 -0.428684,0.02262 -0.642666,0.01123 z m 1.634683,-4.1494206 c 0.969248,-0.33334 1.851608,-0.899403 2.659836,-1.524352 0.600128,-0.427457 0.498907,-1.401385 -0.127551,-1.752133 -0.742065,-0.57779 -1.53513,-1.119472 -2.413203,-1.463808 -0.614816,-0.147449 -1.163707,0.438811 -1.14797,1.033252 -0.11232,1.013628 -0.178152,2.054421 -6.28e-4,3.062669 0.130465,0.429072 0.583776,0.727048 1.029561,0.644372 z"
       id="path49" /></g></svg>
