<?xml version="1.0" encoding="UTF-8" standalone="no"?>
<!-- Created with Inkscape (http://www.inkscape.org/) -->

<svg
   width="50"
   height="50"
   viewBox="0 0 13.229166 13.229167"
   version="1.1"
   id="svg1"
   xml:space="preserve"
   xmlns="http://www.w3.org/2000/svg"
   xmlns:svg="http://www.w3.org/2000/svg"><defs
     id="defs1" /><g
     id="layer1"><path
       style="fill:#000000;stroke-width:0.0463337"
       d="m 1.0569308,9.6249496 c 0,-1.1953061 0,-2.3906111 0,-3.5859171 3.83025,0 7.660501,0 11.4907512,0 -0.01008,2.378389 0.02811,4.7581425 -0.0394,7.1353865 -1.917778,-1.0259 -3.7966272,-2.123648 -5.7137952,-3.150688 -1.924531,1.040345 -3.825793,2.123437 -5.737556,3.187135 0,-1.195305 0,-2.390611 0,-3.5859164 z m 0,-5.7634181 c 0,-0.262617 0,-0.525234 0,-0.787851 3.830997,0 7.661994,0 11.4929902,0 -0.0085,0.517393 -0.01693,1.034786 -0.0254,1.552179 -3.8225282,0.0078 -7.6450582,0.01567 -11.4675872,0.02351 -10e-7,-0.262612 -2e-6,-0.525224 -3e-6,-0.787836 z m 0,-2.942371 c 0,-0.254835 0,-0.509671 0,-0.76450601 3.83025,0 7.660501,0 11.4907512,0 0,0.50967101 0,1.01934201 0,1.52901301 -3.8302502,0 -7.6605012,0 -11.4907512,0 0,-0.254836 0,-0.509671 0,-0.764507 z"
       id="path2388" /></g></svg>
