<?xml version="1.0" encoding="UTF-8" standalone="no"?>
<!-- Created with Inkscape (http://www.inkscape.org/) -->

<svg
   width="50"
   height="50"
   viewBox="0 0 13.229166 13.229167"
   version="1.1"
   id="svg1"
   xml:space="preserve"
   xmlns="http://www.w3.org/2000/svg"
   xmlns:svg="http://www.w3.org/2000/svg"><defs
     id="defs1" /><g
     id="layer1"><path
       style="fill:#000000;stroke-width:0.0430689"
       d="M 6.3167903,13.202396 C 5.4725429,13.149413 4.7853045,12.991175 4.0605104,12.682888 3.0136239,12.237593 2.0719508,11.496607 1.3769792,10.571251 0.6737039,9.6348351 0.2306841,8.5150334 0.1068347,7.3607649 -0.02865524,6.0980236 0.19045077,4.8673982 0.75153173,3.7397355 1.0877013,3.0641064 1.4551404,2.5546394 1.9971964,2.0125832 2.5724276,1.4373483 3.1294455,1.0451112 3.8667916,0.69605585 4.9130728,0.20075525 6.132927,-0.00487932 7.302491,0.11689044 9.0582748,0.29969808 10.657869,1.178824 11.768968,2.571642 c 0.679634,0.8519571 1.14932,1.8968297 1.327843,2.9539597 0.07112,0.4211478 0.09035,0.6594762 0.09035,1.119949 0,0.3703416 -0.0093,0.5391616 -0.04528,0.8204662 -0.161419,1.2626791 -0.667258,2.4132926 -1.499174,3.4101151 -0.150019,0.179757 -0.602204,0.631942 -0.781962,0.781962 -1.0689184,0.892082 -2.2942203,1.401277 -3.6779048,1.528406 -0.130826,0.01202 -0.7474617,0.02332 -0.8660497,0.0159 z M 6.1652446,10.685385 C 6.7421208,10.617906 7.2793229,10.359601 7.6836117,9.9553127 8.0198935,9.6190275 8.268512,9.1783044 8.3723051,8.7344464 8.437875,8.4540497 8.4348993,8.5344185 8.4415657,6.8656154 l 0.00617,-1.5405148 0.096859,0.062257 c 0.3016946,0.1939166 0.6080608,0.3323941 0.9328265,0.4216485 0.1367004,0.037559 0.422212,0.095846 0.4695609,0.095846 0.021573,0 0.02204,-0.017306 0.02204,-0.8473243 V 4.2102034 L 9.8551687,4.2023606 C 9.4551007,4.1748158 9.1028481,4.0425002 8.8226029,3.8145084 8.4245767,3.4907089 8.2054858,3.1624549 8.0992405,2.7307454 8.0854274,2.6746153 8.0663757,2.6197195 8.0569004,2.6087507 8.040992,2.5903195 8.0020241,2.588807 7.5463856,2.588807 h -0.493283 l -0.017732,0.025338 c -0.015947,0.022775 -0.017732,0.3117091 -0.017732,2.8480907 0,3.0364665 0.00311,2.8742039 -0.056405,3.0453907 -0.059599,0.1717374 -0.1418614,0.2979304 -0.2904,0.4454952 -0.2216399,0.220185 -0.477165,0.326601 -0.787031,0.3277651 C 5.6305549,9.2816627 5.4134741,9.2170899 5.2114752,9.0803469 5.1181115,9.0171436 4.9349859,8.8422512 4.8882925,8.7716951 4.6322709,8.384801 4.6365546,7.8631078 4.8989241,7.47607 5.0433576,7.2630089 5.3168902,7.0695462 5.5650934,7.0048958 c 0.1748149,-0.045533 0.3833555,-0.049421 0.5551284,-0.010352 0.042868,0.00973 0.085406,0.014861 0.094531,0.011368 0.014279,-0.00547 0.016568,-0.1022993 0.016413,-0.6932954 -8.5e-5,-0.3778153 -0.00442,-0.6936219 -0.00962,-0.7018051 C 6.2055986,5.5856679 5.9929411,5.5714205 5.7299313,5.5778695 5.5250068,5.5829151 5.4619124,5.5887769 5.3441935,5.6136445 4.3833603,5.8168113 3.6069258,6.5578436 3.3722486,7.495664 3.3098214,7.74514 3.2970123,7.8563246 3.2975608,8.1440469 c 3.88e-4,0.2829575 0.01715,0.4213534 0.079073,0.6593831 0.077866,0.2992345 0.2414092,0.6350858 0.4336107,0.8904673 0.066211,0.087969 0.3198689,0.3354437 0.4570621,0.4459187 0.1993217,0.160493 0.5098551,0.334621 0.7390225,0.414393 0.1855938,0.0646 0.4410296,0.118456 0.6666273,0.140545 0.1080847,0.01054 0.3632758,0.0058 0.4922897,-0.0093 z"
       id="path48" /></g></svg>
