<?xml version="1.0" encoding="UTF-8" standalone="no"?>
<!-- Created with Inkscape (http://www.inkscape.org/) -->

<svg
   width="50"
   height="50"
   viewBox="0 0 13.229166 13.229167"
   version="1.1"
   id="svg1"
   xml:space="preserve"
   xmlns="http://www.w3.org/2000/svg"
   xmlns:svg="http://www.w3.org/2000/svg"><defs
     id="defs1" /><g
     id="layer1"><path
       style="fill:#000000;stroke-width:0.0585693"
       d="m 6.3510305,0.07032148 c 0.7382879,0.05266 1.5764029,0.717395 1.3350999,1.52642902 -0.300666,0.660195 -0.8588389,1.165835 -1.2914249,1.741909 -0.86891,1.075234 -1.805956,2.092512 -2.776917,3.075904 0.855201,0.861025 1.618847,1.812834 2.331468,2.793286 0.449446,0.7268412 0.942793,1.4329835 1.5867959,2.0026745 0.513695,0.491495 0.312644,1.378799 -0.287641,1.701983 -0.8075739,0.520562 -1.9399059,0.291854 -2.5386299,-0.444283 -0.964949,-0.893996 -1.498005,-2.124833 -2.375397,-3.0913655 -0.603898,-0.770285 -1.263389,-1.503334 -2.01545698,-2.12976 -0.483511,-0.609853 -0.136187,-1.465435 0.37172,-1.94097 1.08380398,-1.154683 2.19707898,-2.284404 3.17577398,-3.532649 0.565369,-0.592333 0.947315,-1.49908702 1.832219,-1.66481902 0.212989,-0.05051 0.435368,-0.04298 0.65239,-0.03834 z M 12.540903,1.8665195 c 0.900906,0.08394 0.848314,1.173419 0.138639,1.501381 -1.122074,1.140499 -2.342534,2.17823 -3.5285116,3.248345 0.541418,0.673824 1.2131516,1.247554 1.7949436,1.892706 0.698758,0.744771 1.403955,1.4957165 2.013379,2.3136725 0.295357,0.877464 -1.113106,1.26423 -1.600266,0.64296 -0.351302,-0.440438 -0.752801,-0.828199 -1.23061,-1.129289 C 9.2357714,9.6283635 8.4497694,8.7944995 7.5490364,8.0942825 7.1377084,7.6796675 6.3061385,7.2242265 6.7829965,6.5426765 c 0.4482349,-0.519341 1.0597819,-0.884564 1.5464149,-1.3738 1.150027,-0.972884 2.2313356,-2.021757 3.3191096,-3.061805 0.238265,-0.208397 0.581949,-0.297396 0.892382,-0.240552 z"
       id="path50" /></g></svg>
