<?xml version="1.0" encoding="UTF-8" standalone="no"?>
<!-- Created with Inkscape (http://www.inkscape.org/) -->

<svg
   width="50"
   height="50"
   viewBox="0 0 13.229166 13.229167"
   version="1.1"
   id="svg1"
   xml:space="preserve"
   xmlns="http://www.w3.org/2000/svg"
   xmlns:svg="http://www.w3.org/2000/svg"><defs
     id="defs1" /><g
     id="layer1"><path
       style="fill:#000000;stroke-width:0.0462901"
       d="M 3.4366716,13.223005 C 3.2854587,13.202292 3.1508248,13.143286 2.8709935,12.975074 2.6405904,12.836567 2.5281931,12.738618 2.4237284,12.585297 2.3046929,12.410595 2.2067074,12.08817 2.2064353,11.870291 c -1.665e-4,-0.157492 0.055841,-0.367006 0.1577654,-0.589914 0.1186776,-0.259521 0.3106296,-0.4267 0.8331866,-0.725655 0.2787967,-0.1595 0.3086928,-0.18009 0.3989856,-0.274803 0.077844,-0.08166 0.099643,-0.115005 0.1569698,-0.240165 C 3.8297546,9.8729464 3.8555261,9.7695026 3.8578008,9.6205113 3.8611165,9.4113505 3.7807587,9.2062036 3.6289948,9.0354788 3.5272224,8.9209899 3.4630065,8.8787248 3.2567361,8.7904555 3.150407,8.7449586 3.1182695,8.7375504 2.9481422,8.7193184 2.651891,8.6875768 2.4878785,8.6635001 2.4185291,8.6415661 2.2788226,8.5973873 2.1262297,8.4905832 2.032641,8.3714698 1.7782633,8.0477248 1.6957298,7.6283008 1.8012026,7.1954456 1.8464317,7.0099162 1.891582,6.8884623 1.9889574,6.690547 2.1271985,6.4095685 2.2649351,6.2082979 2.4246039,6.0539391 2.5405616,5.9418378 2.6256286,5.8839732 2.744903,5.8360903 2.9177483,5.7666902 2.9973572,5.6897086 3.0255098,5.5647398 3.0377784,5.5102187 3.0369827,5.4929674 3.0195423,5.4448557 2.9824703,5.3415221 2.9048447,5.245999 2.794192,5.1676023 2.6075249,5.0353363 2.4100949,4.9771387 2.1827354,4.9873632 2.0669692,4.9922189 2.0464901,4.9976983 1.90295,5.0572558 1.6468278,5.1635582 1.5777439,5.1790613 1.3575661,5.1796718 1.1295831,5.1803063 1.0381369,5.1619836 0.81239446,5.0706156 0.54862624,4.9638345 0.43276088,4.8734098 0.27567208,4.6517458 0.17539196,4.5102473 0.12341805,4.4018986 0.07751218,4.238675 -0.02516238,3.8736189 -0.00984934,3.6315198 0.13494419,3.3300371 0.20910833,3.1756437 0.24927737,3.1292451 0.4293719,2.9900011 0.54708063,2.8989868 0.6188512,2.861245 0.75937354,2.8164627 0.95144536,2.7552135 1.1354058,2.7509814 1.3248451,2.8034218 c 0.2849106,0.078848 0.6868143,0.2920492 0.9487864,0.5033084 0.066119,0.053272 0.2101431,0.1544628 0.3201059,0.224813 0.1099563,0.070351 0.2399868,0.1605323 0.2889438,0.2004105 0.142598,0.1161593 0.3088319,0.2351903 0.3860405,0.2764419 0.081531,0.043562 0.2714152,0.107995 0.3854296,0.1308022 0.096135,0.019215 0.3823199,0.018937 0.4906844,-5.377e-4 0.04503,-0.00811 0.1172314,-0.033919 0.1620892,-0.057989 0.069688,-0.037388 0.086751,-0.053689 0.1233592,-0.1178379 0.023344,-0.040926 0.059156,-0.1124897 0.079615,-0.1589646 0.035281,-0.080291 0.036873,-0.090605 0.032033,-0.2071736 C 4.5372881,3.4884364 4.5322483,3.4643667 4.497366,3.391866 4.4443768,3.2816858 4.3883841,3.2113701 4.3000809,3.14428 4.2074604,3.0738949 4.1719002,3.0573444 3.869594,2.9438902 3.5816449,2.8358261 3.5392413,2.8144961 3.4645662,2.7401156 3.2602258,2.5365838 3.180557,2.0020125 3.2929942,1.5888584 3.3797781,1.2699719 3.6231872,0.87503978 3.8440148,0.69482158 3.9680968,0.59355573 4.3133247,0.3724875 4.4493176,0.30720848 4.6611788,0.20551137 4.9027307,0.10826126 5.0288487,0.07389081 5.2533239,0.01271037 5.491991,0.01971589 5.6745991,0.09289729 c 0.1841932,0.07379013 0.4057436,0.29598869 0.4847423,0.48615376 0.039261,0.0944755 0.082168,0.29405396 0.082168,0.38205731 0,0.0446023 -0.00842,0.12453894 -0.018768,0.17767974 -0.034884,0.1799684 -0.090141,0.2957809 -0.2980091,0.6249196 -0.055641,0.088101 -0.097482,0.1665324 -0.092985,0.1742876 0.00596,0.00971 0.043836,0.011584 0.1229082,0.00624 0.1494421,-0.010474 0.2581979,0.013526 0.4009619,0.088608 0.1328625,0.069837 0.2155884,0.1471586 0.2789558,0.2607374 0.080696,0.1446408 0.107695,0.2551397 0.1093721,0.447594 6.658e-4,0.09037 -0.00596,0.2337266 -0.014856,0.3185813 -0.016978,0.1610317 -0.012999,0.316209 0.011142,0.4317231 0.016911,0.08097 0.07183,0.1519935 0.1454764,0.1881399 0.1100556,0.054035 0.396386,0.10427 0.5937036,0.1041936 C 7.7040927,3.7837178 8.0692029,3.7299875 8.2477059,3.670791 8.3470445,3.6378424 8.5904469,3.4901983 8.733927,3.3758702 8.9563793,3.1986139 8.996575,3.1598595 9.0513806,3.0697816 9.2384918,2.7622224 9.5970829,2.4254535 9.9057692,2.2673768 c 0.057233,-0.029272 0.1788278,-0.092388 0.2702148,-0.1401805 0.09139,-0.047793 0.216902,-0.1054492 0.278917,-0.1281317 l 0.112754,-0.041272 0.25518,4.41e-4 c 0.222154,3.764e-4 0.27826,0.00485 0.433525,0.033919 0.259425,0.048764 0.497588,0.1363792 0.651181,0.2395949 0.267351,0.1796495 0.547142,0.4523941 0.671622,0.654712 0.09533,0.1549276 0.12326,0.214339 0.185798,0.3951816 0.097,0.2805066 0.138739,0.5345574 0.137518,0.8370736 -0.0013,0.2713158 -0.04603,0.460586 -0.178908,0.7537172 -0.115566,0.2549317 -0.233804,0.4089992 -0.464972,0.6058442 -0.33518,0.2854177 -0.557666,0.3802748 -1.125353,0.4798073 -0.159755,0.028024 -0.339013,0.062359 -0.398355,0.076246 -0.1386,0.032533 -0.452823,0.1451193 -0.495652,0.1775962 -0.04443,0.033711 -0.06472,0.1067742 -0.04629,0.1664491 0.01804,0.058128 0.103504,0.1414013 0.188644,0.1837351 0.05829,0.028995 0.08252,0.033434 0.180108,0.033087 0.101325,-3.763e-4 0.130198,-0.00624 0.284851,-0.059585 0.303621,-0.1044574 0.36903,-0.1154588 0.688387,-0.1157985 0.320205,-3.228e-4 0.390803,0.011099 0.617181,0.099796 0.352708,0.1382175 0.631013,0.3374273 0.778154,0.5570061 0.111648,0.1665997 0.207167,0.438043 0.255566,0.726252 0.03747,0.2231921 0.02614,0.3614886 -0.04575,0.5587062 -0.06903,0.1892848 -0.224635,0.3869928 -0.442001,0.5615751 -0.0856,0.068756 -0.120361,0.087631 -0.229441,0.1246054 -0.166852,0.056553 -0.297333,0.074351 -0.482442,0.0658 -0.130793,-0.00604 -0.175624,-0.014741 -0.374109,-0.072622 -0.418821,-0.1221296 -0.468905,-0.1262506 -0.610834,-0.050262 -0.05173,0.027684 -0.106704,0.064898 -0.122198,0.082702 -0.04563,0.052391 -0.07232,0.1483954 -0.06433,0.2313967 0.0078,0.081449 0.01004,0.084044 0.178914,0.2149328 0.204726,0.1586274 0.428185,0.5146494 0.477229,0.7603144 0.02739,0.137388 0.01659,0.416084 -0.02307,0.59401 -0.11704,0.524754 -0.384012,0.858888 -0.912902,1.142549 -0.179313,0.09617 -0.282325,0.127711 -0.482501,0.147713 -0.2269559,0.02268 -0.4294065,-0.0067 -0.6186199,-0.0898 C 9.189867,11.967396 8.9886765,11.736724 8.9307937,11.49781 8.9057257,11.394271 8.9055925,11.15026 8.9306105,11.047483 8.9825379,10.834194 9.0636522,10.736927 9.4232047,10.456957 9.5496808,10.358469 9.5741194,10.304718 9.5409866,10.197831 9.5203615,10.13122 9.4220243,10.044709 9.3340859,10.015788 9.1466632,9.9541425 8.7154864,9.9316189 8.4663542,9.9704573 8.1642598,10.017549 8.0126689,10.064905 7.748814,10.194595 7.5759147,10.27958 7.1952729,10.511308 7.0663562,10.61006 c -0.2299595,0.176162 -0.5213434,0.460283 -0.691961,0.674718 -0.049806,0.06257 -0.1363378,0.167777 -0.1923438,0.233814 -0.05604,0.06603 -0.1544823,0.188313 -0.2188181,0.271727 -0.064328,0.08341 -0.2216631,0.262735 -0.3496115,0.39849 -0.2949717,0.312973 -0.5672491,0.535601 -0.8854123,0.723959 -0.1529572,0.09055 -0.4638718,0.218174 -0.6231159,0.255774 -0.1946516,0.04596 -0.5311322,0.07344 -0.6686767,0.05459 z"
       id="path28" /></g></svg>
