<?xml version="1.0" encoding="UTF-8" standalone="no"?>
<!-- Created with Inkscape (http://www.inkscape.org/) -->

<svg
   width="80"
   height="80"
   viewBox="0 0 80 80"
   version="1.1"
   id="svg1"
   xml:space="preserve"
   xmlns="http://www.w3.org/2000/svg"
   xmlns:svg="http://www.w3.org/2000/svg"><defs
     id="defs1" /><g
     id="layer1"><path
       style="fill:#000000;stroke-width:0.0717654"
       d="m 66.29007,79.860795 c -4.491797,-0.329275 -7.389889,-4.699672 -7.681302,-9.134532 -1.474583,-2.342912 -3.816459,-0.045 -5.395452,0.839464 -5.949391,3.607551 -13.279158,5.672003 -19.923301,2.893732 -4.67829,-1.743342 -9.381042,-4.342291 -11.971794,-8.983311 -2.470787,-3.491133 -3.046777,-7.879141 -4.186917,-11.909198 -1.87472,-5.154704 -8.0432736,-1.719663 -6.876092,2.940294 -0.6356513,4.618428 3.482576,6.517291 7.151297,6.808267 5.19358,1.964212 6.344161,10.981836 1.033661,13.487906 C 13.986054,78.972249 9.4966354,75.569358 6.5948606,72.221818 0.46466965,64.04827 -1.2846751,52.619438 1.4601784,42.686784 2.9206412,38.851648 4.3954233,34.747459 7.3297286,31.868496 10.167501,29.982455 14.795525,27.789203 12.828715,23.3279 10.648924,19.253303 5.4927593,23.360681 2.9559331,19.913391 0.11010323,16.383119 1.894679,11.240643 3.5566605,7.5761604 5.8496817,3.1627524 10.51494,-0.27100649 15.411161,0.10987611 c 3.994279,0.45683776 5.67999,4.65594679 4.775635,8.35720089 1.562637,3.529393 5.782207,-0.032774 7.613449,-1.686812 4.852344,-3.3812293 10.713391,-7.45961961 16.771707,-5.2281583 2.479001,1.3209722 4.810159,6.8056559 7.496268,2.3848862 3.06474,-4.16211103 8.818723,-4.40102558 13.291851,-3.20617117 5.236404,1.16664327 8.954808,7.34742177 7.072237,12.74226627 -0.807262,4.44675 -5.29311,5.478925 -8.698829,6.846519 -3.861772,1.2387 -4.217586,7.435213 -0.324072,8.833785 5.37115,1.573509 4.163252,-5.649536 7.355359,-7.748699 3.286074,-2.477094 7.706369,0.52534 8.436849,4.30526 1.256464,4.332639 0.866595,9.260655 -1.754375,12.958833 -2.129841,4.948169 -6.748325,7.643835 -10.465981,11.07274 -1.740582,1.397163 -3.877572,6.695932 0.134021,6.079965 2.463039,-0.291454 4.81443,-2.174411 7.400826,-1.171367 4.176926,1.478505 5.825128,6.977199 5.092297,11.221448 -0.220658,4.43435 -1.779511,9.071368 -5.63205,11.405285 -2.207012,1.675645 -4.923596,2.816027 -7.686283,2.583938 z"
       id="path2" /></g></svg>
