<?xml version="1.0" encoding="UTF-8" standalone="no"?>
<!-- Created with Inkscape (http://www.inkscape.org/) -->

<svg
   width="49.647232"
   height="49.829063"
   viewBox="0 0 13.135829 13.183939"
   version="1.1"
   id="svg1"
   xml:space="preserve"
   xmlns="http://www.w3.org/2000/svg"
   xmlns:svg="http://www.w3.org/2000/svg"><defs
     id="defs1" /><g
     id="layer1"
     transform="translate(-0.05034517,-0.02671924)"><path
       style="fill:#000000;stroke-width:0.0704091"
       d="M 3.0142202,13.209212 C 2.3092987,13.21417 2.2166399,12.292014 2.6931643,11.870945 3.2036326,11.098873 3.6165053,10.264743 4.1320766,9.501403 4.4739109,8.9251333 4.9398026,8.3321707 4.8999543,7.6025887 4.6963979,7.0294784 3.9406881,6.9859424 3.5428967,7.3463024 3.1087386,7.7464051 2.2439346,7.869184 2.0858284,7.1002537 1.9901009,6.3821628 2.7681306,6.2398766 3.2670623,6.2595069 3.8494257,6.1567533 4.604439,6.3991484 4.9888788,5.7648518 5.2000699,5.1494666 4.8955031,4.2909627 4.2445953,4.1868069 3.7131028,4.0416495 3.0136889,3.5441807 3.4407086,2.8695869 3.7518946,2.2958103 4.5652969,2.1873134 4.8907121,2.821784 5.2762074,3.2271242 5.191793,4.3114938 5.9422897,4.095841 6.6109574,3.9644068 6.6014339,3.0818561 6.7990806,2.5268983 6.9219378,1.9824145 7.3074584,1.4741444 7.7942489,1.2845847 8.4056409,1.13361 8.8540603,1.9409539 8.7391414,2.5477825 8.7339448,3.1756546 8.2725899,3.6159484 8.0225756,4.1161237 8.1884662,4.2169278 9.0589868,3.7926477 9.0255993,4.5252051 9.2064979,5.1380751 7.8234089,5.2203488 8.3894802,5.6626994 8.9691029,5.5831806 9.3018969,4.9546909 9.5999714,4.4858113 9.7400067,3.8748013 10.653197,3.4710522 10.859174,4.2291441 10.961631,4.8081036 10.390267,5.2031296 10.06105,5.541645 9.5480301,5.9777685 8.7827174,6.2561227 8.6652673,7.0517423 8.473398,7.771917 9.4442259,7.9452443 9.5779722,8.5663755 9.8393905,9.2157517 9.0395786,9.9564311 8.5121512,9.5222493 8.0031589,9.1878176 7.9555145,8.4169931 7.5146248,8.0272149 6.9066533,7.7108873 6.1369927,7.9429004 5.6715493,8.4305693 5.1822025,9.054206 4.6984159,9.6874369 4.3793291,10.433665 3.9517026,11.105741 3.7724729,11.900258 3.5338861,12.661396 3.4247382,12.892335 3.3070642,13.235691 3.0142202,13.209214 Z M 0.10393439,12.561119 c -0.25223732,-0.383196 0.48971979,-0.25925 0.0965158,0.05237 l -0.0965158,-0.05238 z M 5.7994215,12.365731 C 5.2569473,12.326614 5.5532254,11.548014 6.0080549,11.732617 6.6663021,11.52126 6.3743398,12.625101 5.7994215,12.365731 Z M 0.81065147,12.132073 c -0.60082879,0.07772 -0.33867857,-0.880782 0.0777785,-1.014905 0.79210323,-0.44059 0.71333053,0.840838 0.0753658,0.974229 l -0.0937966,0.04799 -0.0593518,-0.0073 z M 6.0732392,11.305253 C 5.5918338,11.01517 5.8768799,10.258915 5.7724212,9.7612702 5.8032844,9.107031 6.6856373,8.7882412 7.041083,9.3339332 7.2970963,9.9114118 6.8360097,10.523405 6.6276291,11.044447 6.5092733,11.248709 6.2991502,11.397537 6.0732392,11.305253 Z M 1.8058117,10.882817 C 1.5006203,10.492675 1.4825516,9.7636004 2.0316237,9.5918108 2.5824681,9.6431179 2.8474789,9.2614306 3.0682428,8.7766486 3.7354117,8.380249 3.6942787,9.7247905 3.0133011,9.5781978 2.7607307,10.053771 2.4641083,10.457591 2.0781202,10.789955 c -0.063375,0.06265 -0.1835708,0.195941 -0.2723085,0.09286 z M 12.41493,10.194804 c -0.732167,-0.126656 0.0074,-1.0190021 0.439281,-0.5885168 0.24771,-0.033328 0.584631,0.5264928 0.0372,0.4660708 -0.125262,-0.1300529 -0.280354,0.294196 -0.476478,0.122446 z M 10.611202,8.881665 c -0.6243967,-0.013108 -0.504907,-0.9814929 0.08387,-0.692137 0.604101,-0.1076131 0.469224,0.8439272 -0.08387,0.692137 z m 0.782635,-3.7000406 c -0.616126,-0.1359527 -0.09022,-0.9500279 0.07154,-1.3108051 0.218782,-0.5324157 0.893764,-0.00407 0.651246,0.4448405 -0.106285,0.3504688 -0.34515,0.848211 -0.722786,0.8659646 z M 9.2156853,3.4810365 C 8.6191562,3.1514832 9.2707951,2.4952219 9.68541,2.4229711 9.5337508,2.099488 9.7992034,1.2857567 10.205624,1.625087 c 0.638079,0.00386 0.215516,1.0460418 -0.154058,1.0951291 0.0311,0.4700637 -0.4195366,0.879776 -0.8358807,0.7608204 z M 3.8450012,1.4323119 C 3.6702628,1.0097391 2.9018135,0.31910349 3.6473248,0.02671924 4.1731387,0.06866536 4.3677514,0.94644563 4.2518472,1.3941126 4.1915021,1.5226542 3.92555,1.5428474 3.8450012,1.4323119 Z m 6.9448938,0.058792 C 10.125981,1.0510191 11.549677,0.37895745 11.262957,1.2693458 11.09813,1.3087407 10.971545,1.5423792 10.789895,1.4911039 Z"
       id="path2" /></g></svg>
