<?xml version="1.0" encoding="UTF-8" standalone="no"?>
<!-- Created with Inkscape (http://www.inkscape.org/) -->

<svg
   width="80"
   height="80"
   viewBox="0 0 80 80"
   version="1.1"
   id="svg1"
   xml:space="preserve"
   xmlns="http://www.w3.org/2000/svg"
   xmlns:svg="http://www.w3.org/2000/svg"><defs
     id="defs1" /><g
     id="layer1"><path
       style="fill:#000000;fill-opacity:1;stroke:#940000;stroke-width:4;stroke-dasharray:none;stroke-opacity:1"
       d="m 22.866807,77.774557 c -3.790892,-0.2327 -8.529267,-2.061528 -8.911487,-6.624468 -0.381387,-4.764364 4.544956,-7.166471 8.318956,-7.83726 2.222917,-0.01835 7.87289,-1.284176 4.019983,-4.082625 -3.062954,-1.866244 -5.259514,-5.259019 -5.233014,-9.046186 -0.599631,-4.167124 -7.207003,-6.043361 -9.260673,-2.020742 -1.791027,3.72006 -7.4382446,3.60605 -9.019468,-0.183596 -1.4751568,-3.245077 0.1456695,-8.092468 3.9771806,-8.158416 3.8003814,0.303523 8.3068764,0.308024 10.6639334,-3.476927 2.60142,-2.902035 5.12554,-7.118406 3.75871,-11.223454 -2.823419,-2.159679 -6.388158,1.590097 -9.49899,-0.292029 -4.5008558,-2.116785 -5.950623,-10.050325 -1.171839,-12.744791 3.12576,-1.909977 7.300791,-0.85061 10.151774,-3.5544035 2.875716,-2.3794811 4.867806,-7.83804713 9.347478,-6.4653705 4.573132,2.3132315 0.300643,7.400917 -3.221612,7.6724073 -3.125228,2.6467737 0.831263,5.5722847 3.422528,3.5256057 5.659924,-2.692358 10.941031,-6.7462309 17.344236,-7.2451987 3.792906,-0.3580675 8.046227,0.5289838 10.866817,3.3401598 2.18342,2.4109779 0.398774,6.3344699 -2.50994,6.7599949 3.093176,3.720543 8.34691,2.741122 12.543762,3.233143 4.343919,0.02485 9.2549,2.98921 9.279862,8.021848 0.278408,3.959683 -0.89733,7.847142 -3.022604,11.09117 -2.086309,4.46325 -7.179167,6.000441 -9.528195,10.176504 -1.881846,2.323937 0.759267,4.029011 2.661901,2.8849 3.158547,-1.941892 7.545116,-0.671612 8.645718,3.176999 1.400273,3.503206 0.539234,7.550014 -0.595877,10.993137 -2.298556,4.480825 -8.174378,7.992593 -12.820722,5.252139 -4.184036,-1.514939 -1.686786,-7.122844 -4.985331,-9.05494 -4.326245,-1.763848 -8.704133,1.231893 -12.340522,3.448235 -3.500405,2.658082 -7.237595,5.024519 -10.446752,8.069489 -3.643399,2.608086 -7.88897,4.863926 -12.435813,4.364675 z"
       id="path3" /></g></svg>
