<?xml version="1.0" encoding="UTF-8" standalone="no"?>
<!-- Created with Inkscape (http://www.inkscape.org/) -->

<svg
   width="80"
   height="80"
   viewBox="0 0 80 80"
   version="1.1"
   id="svg1"
   xml:space="preserve"
   xmlns="http://www.w3.org/2000/svg"
   xmlns:svg="http://www.w3.org/2000/svg"><defs
     id="defs1" /><g
     id="layer1"><path
       style="fill:#000000;stroke-width:0.0667788"
       d="M 52.176311,79.895883 C 47.386666,78.879045 41.646672,75.878545 41.349534,70.361268 42.188071,66.456511 41.148368,60.786353 35.8346,61.834441 31.475257,62.098952 29.582354,67.075965 25.276599,67.630017 19.103592,69.460286 11.632531,66.681652 8.4052732,61.079898 6.1212684,56.623081 7.4662472,50.670226 11.738081,47.900615 14.747725,45.63354 19.451508,44.9076 20.55007,40.726155 21.242401,35.92973 15.846114,33.941481 11.937125,34.174403 3.6719461,32.76157 -1.9995299,23.234082 0.78774788,15.288776 2.6284923,8.497383 9.2048733,3.0201729 16.36537,3.3689471 c 4.032219,0.6027191 9.190351,1.4910851 10.981263,5.6968009 1.536784,3.337907 0.582432,8.03302 4.092239,10.209379 5.142732,1.436342 2.72411,-5.558889 1.646668,-8.05821 C 31.291116,6.415125 35.28442,0.89072851 40.272204,0.49566954 45.191147,-0.77803078 51.633586,1.4430293 52.76732,6.8927873 c 1.989789,4.3107997 -1.973762,7.9833237 -1.940218,12.0804917 2.478621,3.605139 5.099727,-2.811768 6.516315,-4.681435 6.108885,-6.8591948 18.93664,-3.180403 21.234858,5.487303 2.250735,6.025568 1.72633,13.102237 -1.296948,18.764006 -2.103137,3.606141 -5.576467,6.669914 -9.914414,6.904481 -4.27605,0.143172 -7.681375,5.281089 -3.882469,8.557972 2.707364,2.317294 5.550796,4.993989 5.867173,8.786141 0.281735,4.427557 -0.988911,9.186781 -4.624429,12.028197 -3.155557,3.11195 -7.65329,5.111363 -12.101361,5.112321 l -0.449559,-0.03638 z M 51.600393,18.895806 c 0.0508,-0.426986 0.190307,0.606305 0,0 z"
       id="path1" /></g></svg>
