<?xml version="1.0" encoding="UTF-8" standalone="no"?>
<!-- Created with Inkscape (http://www.inkscape.org/) -->

<svg
   width="98.217361"
   height="97.668648"
   viewBox="0 0 25.986677 25.841496"
   version="1.1"
   id="svg1"
   xml:space="preserve"
   xmlns="http://www.w3.org/2000/svg"
   xmlns:svg="http://www.w3.org/2000/svg"><defs
     id="defs1" /><path
     style="fill:#000000;stroke-width:0.0923173"
     d="m 22.329533,25.830936 c -1.614814,-0.108932 -0.925877,-2.282737 -1.827939,-2.907916 -1.658987,0.358424 -1.627829,-2.535211 0.01405,-2.266569 1.389189,-0.05464 0.352646,1.85522 1.165547,2.001089 1.250463,-0.206765 2.739247,1.081379 1.971716,2.404089 -0.232912,0.497337 -0.775974,0.845893 -1.323376,0.769307 z M 11.784801,25.276842 C 9.9464671,25.134253 8.770084,23.190159 8.9526918,21.425603 9.3204361,20.179098 8.9247803,18.430423 7.2985285,19.080969 6.0535208,19.81725 4.2911981,19.946871 3.2401011,18.790827 1.9972838,17.482758 2.0225216,15.177018 3.0829224,13.760745 4.1409159,12.3389 6.3568773,13.322049 7.3517468,11.816507 8.1973996,10.703189 7.2134126,9.2682914 6.1024967,8.8583973 4.4405923,8.0729231 2.3025149,8.9551588 0.85162899,7.6257442 -0.24762499,6.3849177 0.14636247,4.4502486 0.86780958,3.1103704 1.8369381,2.339822 -0.28280791,2.727202 0.03226958,1.6068447 0.04233312,-0.02829333 2.8614654,-0.67068943 3.3475639,0.9918664 3.0889901,2.4452216 5.333238,1.5458169 5.8520331,2.830621 6.7501347,3.8994956 6.9369416,5.7366276 8.4972634,6.0820936 9.9992452,6.4208185 11.04249,4.7258817 10.755733,3.3559847 10.383631,2.029362 11.212171,0.65374993 12.4204,0.16044528 c 1.784744,-0.65905197 3.856306,0.80314426 3.94113,2.72587032 0.306836,1.4567198 -0.622649,2.6607621 -1.01246,3.9485734 -0.146542,1.4450035 1.928981,2.3866085 2.775549,1.1447564 0.628231,-0.9725782 0.602669,-2.8107608 2.187724,-2.7218619 1.063769,0.1790505 2.110531,1.1056343 2.840859,-0.292969 -0.239243,-1.0003659 1.433237,-1.3013883 0.724507,-2.3700958 0.0274,-1.74686116 2.671978,-0.5055103 1.094282,0.5181691 -1.064039,0.8099092 1.157139,2.6119161 -0.699852,2.8048545 -1.103132,-0.3695669 -1.661668,1.1938893 -1.355551,2.0593618 0.547144,1.6848909 -1.912173,2.0032614 -1.626469,3.5017039 0.50154,1.409557 2.197309,0.644127 3.227611,0.472115 1.129761,0.10034 1.61717,1.593857 1.429862,2.608861 -0.210126,1.248987 -1.400629,2.775349 -2.77608,2.135375 -1.023498,-0.264692 -1.433849,-2.274252 -2.645474,-1.341119 -0.803956,1.049284 0.61556,2.323219 0.153124,3.525495 -0.388181,1.567429 -2.395852,2.629669 -3.759305,1.60191 -0.549088,-0.446129 -1.467853,-2.376849 -2.020285,-1.274722 0.307589,1.635197 0.694684,3.489808 -0.318234,4.967133 -0.594846,0.96962 -1.743885,1.271382 -2.796558,1.102986 z m -8.2440567,-2.5302 c -1.5124116,-0.286824 -0.6130075,-2.617941 0.5721022,-1.967337 1.0732961,-0.746232 1.6266131,1.088156 0.4668496,1.267838 -0.079127,0.519996 -0.5467066,0.818024 -1.0389518,0.699499 z M 2.6053286,13.051559 C 0.87449887,12.774589 1.8842565,10.23877 3.3659052,10.759074 4.8851245,11.289556 4.0582173,13.33528 2.6053286,13.051559 Z M 17.492499,3.8307364 c -1.817977,-1.460502 1.985574,-2.326941 1.004935,-0.2733422 -0.225051,0.3043751 -0.660859,0.4425854 -1.004935,0.2733422 z"
     id="path1" /></svg>
