<?xml version="1.0" encoding="UTF-8" standalone="no"?>
<!-- Created with Inkscape (http://www.inkscape.org/) -->

<svg
   width="98.026192"
   height="97.577003"
   viewBox="0 0 25.936097 25.817248"
   version="1.1"
   id="svg1"
   xml:space="preserve"
   xmlns="http://www.w3.org/2000/svg"
   xmlns:svg="http://www.w3.org/2000/svg"><defs
     id="defs1" /><path
     style="fill:#000000;stroke-width:0.171737"
     d="m 17.621484,25.768894 c -1.429931,-0.549365 0.235671,-3.653411 0.996959,-1.819824 0.162525,0.678834 -0.05754,2.003673 -0.996959,1.819824 z m 1.627179,-0.02053 c -1.006265,-1.015646 1.144229,-1.312851 0.448869,-0.09115 -0.111397,0.106685 -0.303377,0.245741 -0.448869,0.09115 z m -7.747857,-0.435795 c -1.434631,-0.467155 -1.407246,-2.226117 -1.212187,-3.444446 0.05302,-0.789746 0.576365,-1.758821 0.07639,-2.470208 C 9.5859363,18.343843 7.8677265,18.332024 7.571025,16.825256 6.8297486,16.727623 5.6917298,16.786802 5.5117551,15.621185 4.5678559,14.685477 4.0306838,13.285733 4.4236107,11.967557 4.7323481,10.708484 5.9886314,9.4540891 5.1749281,8.1264453 4.7126647,6.9572108 3.2643674,6.1370317 3.6101406,4.7142038 3.7333607,3.4286059 5.2930386,2.5351211 6.2987761,3.5955829 c 1.3306845,0.5629899 1.1062886,2.27416 1.8105871,3.2894144 0.9825694,0.6429591 2.3591818,0.9506737 3.5058288,0.8163429 1.300254,-0.5991201 0.608762,-2.3450289 0.881248,-3.4692091 -0.02689,-1.5593866 2.002405,-1.7483477 2.286627,-0.23383 0.699216,1.4206934 -0.368848,2.718903 -0.517289,4.0778978 -0.0648,1.4124077 0.445204,2.9609581 1.556847,3.8663021 1.212443,0.600909 2.578008,0.906431 3.905739,1.086135 1.218808,-0.08542 2.517969,-0.244365 3.414617,-1.168174 0.706305,-0.971715 2.4523,-1.9990728 2.74781,-0.153549 0.221218,1.245556 -0.367577,2.778712 -1.76903,2.944361 -1.993129,0.543081 -4.056965,0.334575 -6.090028,0.265988 -1.160424,0.102782 -2.47357,-0.0679 -3.480327,0.62339 -0.597514,0.99525 -1.702348,1.730205 -1.724109,2.997571 -0.500603,1.157135 0.120659,1.985772 0.760643,2.828338 0.515267,1.403447 0.161078,3.331219 -1.359055,3.919778 -0.236964,0.05648 -0.488102,0.0819 -0.728079,0.02623 z m 3.666257,-0.522878 c -0.808006,-0.84472 -0.102597,-2.084383 -0.459396,-3.077317 -0.112653,-1.228259 -1.88731,-2.214652 -1.050022,-3.476754 1.312009,-0.528985 1.172168,1.678701 1.62722,2.43494 0.306489,1.217208 1.770193,2.241822 0.98596,3.581704 -0.218252,0.339832 -0.659585,0.882095 -1.103762,0.537427 z M 3.205659,19.334441 C 1.8447795,18.146387 4.4642226,17.081377 3.8940408,18.907362 3.8216909,19.157045 3.4923203,19.542601 3.205659,19.334441 Z M 4.7559104,18.265784 C 3.304056,18.061439 3.9223347,15.215928 5.1950283,16.202744 5.9044505,16.73322 5.9599329,18.459908 4.7559104,18.265784 Z M 0.95741636,13.619626 C -0.47084272,13.249456 -0.15113925,11.38038 0.93463136,10.790347 1.7438001,9.8653163 3.451058,9.8769903 3.5975391,11.336766 c 0.415176,1.172407 -0.4259364,2.639895 -1.7739964,2.404989 -0.2923425,0.0017 -0.5893293,-0.02075 -0.86612634,-0.122129 z M 18.844502,7.6537857 c -1.55458,-0.422104 -0.76158,-2.397833 -0.233303,-3.3667899 0.548785,-0.677699 1.696974,0.028514 1.87726,-1.1894119 1.176954,-0.5909329 1.489935,1.3428115 0.677084,1.900373 -0.0414,0.943512 0.169522,2.2772299 -0.955012,2.6465069 -0.444577,0.087388 -0.92132,0.1027992 -1.366029,0.00932 z M 22.468043,4.927832 C 21.510256,3.9431786 23.887381,2.4485384 23.724492,4.151456 23.58185,4.6627931 23.03233,5.2928323 22.468043,4.927832 Z M 8.7712436,3.3342902 C 7.6731836,2.5572571 8.0630131,0.47932078 9.2901393,0 11.060814,0.05781516 10.041542,2.8911501 8.9669507,3.3653311 L 8.7712456,3.3342902 Z M 10.866042,2.3313264 C 9.8057516,1.3491793 12.142453,0.65308428 11.636898,2.0900031 11.465772,2.3134117 11.13739,2.5515868 10.866042,2.3313264 Z"
     id="path3" /></svg>
