<?xml version="1.0" encoding="UTF-8" standalone="no"?>
<!-- Created with Inkscape (http://www.inkscape.org/) -->

<svg
   width="50.162403"
   height="49.78738"
   viewBox="0 0 13.272135 13.172911"
   version="1.1"
   id="svg1"
   xml:space="preserve"
   xmlns="http://www.w3.org/2000/svg"
   xmlns:svg="http://www.w3.org/2000/svg"><defs
     id="defs1" /><g
     id="layer1"
     transform="translate(0.02688678,-0.03895149)"><path
       style="fill:#000000;stroke-width:0.0466775"
       d="M 8.3530514,13.191826 C 7.6207267,13.036305 6.8136277,12.332417 7.0850398,11.518208 7.377637,10.839628 8.2142064,10.966729 8.8136497,10.894126 9.5293075,11.091511 9.9926174,9.8706738 9.1035145,9.8895558 8.3965731,9.8105852 7.7148832,10.055669 7.1519649,10.474079 6.4615884,10.993166 6.012757,11.792332 5.2475383,12.225776 4.6394743,12.73557 3.6795598,13.050465 2.9562506,12.606861 2.3421945,12.077253 2.7203068,11.151747 3.1892339,10.661211 3.5564192,10.170152 3.9017503,9.2517853 3.2167397,8.8598709 2.5479828,8.7849394 1.6919512,8.5967793 1.6920104,7.7364017 1.6770832,7.0253646 2.0398992,6.2525088 2.6619264,5.889148 3.2516859,5.6139011 4.0293847,5.5980203 4.4903356,6.122707 4.9754724,6.6432141 4.9668906,7.4173209 4.7428871,8.0529869 4.4576685,8.777589 5.325573,9.2769548 5.794617,8.6440074 6.5612092,8.2168915 6.0142474,7.5545677 5.4369058,7.3244338 4.973558,6.8955483 5.1305828,6.2059992 5.3056883,5.6835527 5.2806029,4.8739035 4.2220341,5.2997076 3.6981837,5.1458122 3.0090944,5.1279202 2.2655964,4.4153903 1.6314606,4.9522827 0.9838701,5.4167484 0.13702061,4.7944066 0.030495,4.0973725 -0.22119339,3.4150958 0.39450931,2.6848547 1.1089692,2.7956508 1.9588268,2.9737224 2.5616122,3.6632039 3.2948654,4.0731603 3.8526053,4.4605042 4.8885065,3.9818616 4.3704845,3.2759555 3.9372041,2.9086874 3.0936653,2.8779098 3.1905357,2.0974549 3.130697,1.2006068 3.8619669,0.48710054 4.653917,0.20195725 5.130758,-0.06901463 5.8290555,-0.02607254 6.0994278,0.51280237 6.5387068,0.99066449 5.7655607,1.7351414 5.9289975,1.9595914 6.7466993,1.905681 6.7886085,2.8369617 6.7081782,3.4227324 6.9355527,4.0272663 7.8504085,3.805663 8.3442499,3.653165 8.8866891,3.4321146 9.1387864,2.8917479 9.5602937,2.5286628 9.9258871,2.2991844 10.321394,1.9642243 10.776052,1.9735836 11.88422,1.8712283 12.913076,2.8241506 12.940603,3.927866 13.075822,4.9717231 12.185188,5.928728 11.160649,5.9995764 10.629521,6.1344467 9.6754288,6.2122415 9.6671403,6.9200168 10.097112,7.3420274 10.565703,6.4797673 11.077267,6.5136277 c 0.856398,-0.2324589 1.966848,0.2198549 2.122164,1.1663557 0.237469,0.7558059 -0.487398,1.566955 -1.268844,1.3170651 -0.44202,-0.2356101 -1.445466,-0.6585567 -1.385667,0.2184747 0.371565,0.3946293 0.912216,0.7982088 0.784185,1.4440148 -0.02201,0.8387 -0.590669,1.586336 -1.25842,2.046506 -0.5050201,0.316414 -1.1082615,0.582138 -1.7176336,0.485782 z"
       id="path27" /></g></svg>
