<?xml version="1.0" encoding="UTF-8" standalone="no"?>
<!-- Created with Inkscape (http://www.inkscape.org/) -->

<svg
   width="50"
   height="50"
   viewBox="0 0 13.229166 13.229167"
   version="1.1"
   id="svg1"
   xml:space="preserve"
   xmlns="http://www.w3.org/2000/svg"
   xmlns:svg="http://www.w3.org/2000/svg"><defs
     id="defs1" /><g
     id="layer1"><path
       style="fill:#000000;stroke-width:0.0416779"
       d="M 0.21059461,11.930424 C 0.19942104,11.768925 0.06742551,11.704969 0.12478362,11.48835 0.1288269,11.153408 0.01598749,10.735853 0.50554711,10.581668 1.1124448,10.152031 1.5920335,9.6302568 2.1612279,9.1694075 1.9572822,8.8042423 1.514986,8.4297159 1.312435,8.0154081 0.88837964,7.1608673 0.74384173,6.2362406 0.80273607,5.3201614 0.79126701,4.4502251 1.0386867,3.5276786 1.8083093,2.8862628 2.4830988,2.3153577 3.3722075,1.9103589 4.3215581,1.7084212 5.4270093,1.3708083 6.625719,1.4304349 7.7839341,1.4607362 c 0.8990181,0.031981 1.8007269,0.2080739 2.5415279,0.6294252 0.980695,0.4061914 1.732699,1.1065033 2.158943,1.9242381 0.594927,0.797547 0.695652,1.7520954 0.634606,2.6625667 -0.02513,0.5921873 -0.250197,1.1627446 -0.329919,1.7506753 -0.08005,0.5258134 -0.321404,1.0196592 -0.674636,1.4596555 -0.428118,0.723242 -1.299382,1.170266 -2.139939,1.548153 -1.0212696,0.302493 -2.1020586,0.496806 -3.1955843,0.462885 -1.667112,0.04428 -3.3373345,0.137749 -5.0043991,0.09471 -0.5055827,0.130795 -1.04168592,0.06652 -1.56349884,0.08127 -1.4672e-4,-0.04798 -2.9343e-4,-0.09594 -4.4015e-4,-0.1439 z M 3.5224432,10.847922 C 4.7900379,10.862997 6.0339304,10.664224 7.280766,10.511757 8.4722326,10.437681 9.6883854,10.003681 10.348045,9.1697683 11.05083,8.3654278 11.699323,7.4724175 11.789507,6.470783 11.869197,5.8972929 11.651676,5.3372346 11.298012,4.8454849 10.883659,3.9783477 10.009168,3.3124005 8.997101,2.8910435 8.2363899,2.5148326 7.304779,2.3563644 6.4214049,2.4285747 5.690587,2.5304742 4.9726734,2.7181027 4.3028414,2.9702317 3.1710459,3.4248647 2.1939437,4.2548451 2.0389646,5.3030682 1.9250982,5.9582923 2.2213726,6.6082183 2.4986708,7.2143889 2.820983,7.736511 3.2613734,8.1998248 3.7616302,8.6205045 3.8836683,9.0542676 3.9857187,9.6610923 3.4365534,9.9512126 3.1731868,10.234865 2.4559189,10.625191 2.527182,10.862381 c 0.3316473,0.0046 0.6641615,-0.0079 0.9952612,-0.01446 z M 5.8634765,9.9194345 C 5.7711347,9.4478058 5.8436133,8.9283585 5.9067565,8.4423491 5.9927826,7.7854348 5.740808,7.136829 5.794424,6.4774208 5.736007,6.1064557 5.7181505,5.7533135 6.2809678,5.83113 6.6121714,5.82906 6.9433919,5.8303429 7.2746035,5.82999 c 0.056244,0.8861077 -0.014503,1.7836135 0.1941478,2.6588245 -0.1462699,0.3329514 0.2164979,0.272315 0.2993862,0.4532137 0,0.2744403 0,0.5488806 0,0.8233213 -0.5379679,0.1331031 -1.0868929,0.1942347 -1.6505638,0.1591077 -0.084616,-0.00137 -0.1700602,-2.25e-5 -0.2540972,-0.005 z m -0.0061,-4.6619224 C 5.3554187,5.1584165 5.5929762,4.646802 5.5334944,4.3540197 5.4740514,4.0649959 5.6382545,3.6277259 6.0902523,3.664123 c 0.3376844,-0.00236 0.6753883,-9.773e-4 1.0130822,-0.00136 0.1986153,0.1770544 0.5152378,0.3354156 0.401053,0.639965 -0.02167,0.2433411 0.044622,0.5034055 -0.034,0.7359188 -0.2990284,0.4193024 -1.1201317,0.1797062 -1.613011,0.21886 z"
       id="path34" /></g></svg>
