<?xml version="1.0" encoding="UTF-8" standalone="no"?>
<!-- Created with Inkscape (http://www.inkscape.org/) -->

<svg
   width="43.891464"
   height="48.543049"
   viewBox="0 0 11.612949 12.843682"
   version="1.1"
   id="svg1"
   xml:space="preserve"
   xmlns="http://www.w3.org/2000/svg"
   xmlns:svg="http://www.w3.org/2000/svg"><defs
     id="defs1" /><g
     id="layer1"
     transform="translate(-0.87990427,-0.2257187)"><path
       style="fill:#000000;stroke-width:0.0389946"
       d="M 9.3918963,13.058683 C 9.6161333,12.236697 8.7014121,12.839219 8.2575665,12.74824 6.9545896,12.81404 5.6338481,13.116004 4.3364133,12.8416 3.5129435,12.8393 2.6912272,12.90009 1.8707678,12.95643 1.6395152,12.98475 1.9222458,12.469683 1.5259549,12.735464 1.0599617,12.893218 1.2988555,12.351603 1.2407132,12.096651 1.2795144,11.849399 0.83117479,12.040854 0.99138975,11.681321 1.0307584,10.523532 0.84897004,9.3750804 0.88454798,8.2172446 0.88642735,7.2531679 1.0134352,6.2876509 0.89136592,5.3269887 0.90178526,4.7264721 0.84756621,4.112549 0.9150773,3.5197236 1.1221533,3.3366256 0.9650259,2.9147289 1.0111249,2.6283283 1.2207651,2.3926945 1.9018702,2.6848962 2.25942,2.5353591 2.7013242,2.5560766 2.3313025,3.3554595 2.4482784,3.6650328 2.4669063,5.3604485 2.260102,7.0472226 2.1766274,8.7378657 2.0764682,9.5516642 2.093902,10.373831 2.0087804,11.188923 c 0.8068308,-0.0043 1.6120971,0.139696 2.414826,0.13293 1.809729,-0.416505 3.6844493,-0.251919 5.5146389,-0.507586 0.6714767,-0.03397 1.3432677,0.0098 2.0131447,0.05395 0.07662,0.576019 0.03222,1.172035 0.02855,1.754833 -0.661272,0.192211 -1.359966,0.248204 -2.0339939,0.403936 -0.1811041,0.02356 -0.3745119,0.06095 -0.5540498,0.0317 z M 11.893952,10.43231 C 11.489862,10.372697 11.115466,10.416296 11.280034,9.8828955 11.300539,9.0829413 11.103233,8.2984891 11.115827,7.4976229 11.018171,6.3093841 11.017998,5.1177669 10.99111,3.9270049 10.941777,3.3702711 10.931159,2.8099245 10.914487,2.2513398 9.9398123,2.2939464 8.9758254,2.4880737 7.9963207,2.4424898 6.4855038,2.4557044 4.9689304,2.4390971 3.4693229,2.2399238 2.8060542,2.1540042 2.1405394,2.2094473 1.4758358,2.1875276 1.1565697,2.1969412 1.4235247,1.69729 1.1890517,1.5954547 1.2034447,1.1381458 1.1861917,0.68414 1.1911617,0.2257187 1.9099205,0.265153 2.6215839,0.45703184 3.3471506,0.466511 4.7662693,0.62913492 6.1989184,0.531561 7.6236391,0.5989456 8.8157844,0.5845521 10.020645,0.70826019 11.204262,0.5476045 c 0.321501,-0.0737225 0.900149,-0.20296161 0.74285,0.301755 -0.121143,0.4281265 0.193162,0.3784462 0.529896,0.365116 0.06686,1.1432326 -0.09668,2.2769195 -0.141636,3.4169188 -0.03305,1.8473378 -0.06728,3.6938352 -0.07087,5.5417997 0.05808,0.358529 -0.10152,0.272439 -0.37055,0.259116 z M 11.601589,4.9777603 c -0.01699,0.010783 0.01583,0.057306 0,0 z m -0.02041,-0.5105057 c -0.0167,0.014128 0.0159,0.068159 0,0 z M 6.2754358,10.409849 C 6.4173957,9.9338848 5.8460225,10.109433 6.0249959,9.5939037 5.9854063,8.5680609 6.1126865,7.5498146 6.1990779,6.5309617 6.269834,6.0817571 5.9538035,5.1831382 6.7427715,5.4138185 6.9465041,5.3257 7.5756613,5.1308182 7.4373582,5.618167 7.4544533,6.9748331 7.583762,8.3296228 7.5458808,9.6874259 7.3925444,9.8684111 7.5588078,10.251468 7.1654872,10.129568 6.8464987,10.137705 6.6219147,10.55537 6.2754358,10.409849 Z M 6.6393434,4.7739988 C 6.3967644,4.6963864 5.9958148,4.7823465 6.1090788,4.3994563 6.107313,4.0060214 6.1055473,3.6125865 6.1037816,3.2191516 6.5310476,3.3285753 7.4602119,2.9054596 7.5318365,3.4394343 7.4489478,3.8456127 7.7968398,4.9649376 7.1393101,4.6833617 6.9879929,4.7919108 6.829155,4.8439953 6.6393434,4.7739988 Z"
       id="path18" /></g></svg>
