<?xml version="1.0" encoding="UTF-8" standalone="no"?>
<!-- Created with Inkscape (http://www.inkscape.org/) -->

<svg
   width="47.981651"
   height="29.737711"
   viewBox="0 0 12.695145 7.8681029"
   version="1.1"
   id="svg1"
   xml:space="preserve"
   xmlns="http://www.w3.org/2000/svg"
   xmlns:svg="http://www.w3.org/2000/svg"><defs
     id="defs1" /><g
     id="layer1"
     transform="translate(-0.20561345,-1.8659607)"><path
       style="fill:#000000;stroke-width:0.0591542"
       d="M 7.2859374,9.7200459 C 6.7094326,9.7755591 6.6089095,8.7960884 7.1091646,8.6211226 7.6470784,8.1794419 8.2296005,7.7946222 8.7997203,7.4011633 9.2958982,7.0003584 9.8213412,6.6371244 10.309989,6.2274325 9.2989028,5.4109928 8.2559796,4.6336767 7.2451125,3.8176727 7.0857844,3.4361993 6.9502106,2.9464108 6.9795591,2.5319599 7.5236934,2.5817293 7.2894317,1.6647975 7.912892,1.9066751 8.4180346,1.888494 8.8904361,2.0512094 9.2026343,2.4678884 10.317719,3.5764767 11.446695,4.6717868 12.546632,5.7952628 12.620336,6.2021077 13.1561,6.8262964 12.750438,7.1239645 11.94093,7.5472782 11.144046,7.9975373 10.352439,8.45398 9.643081,8.8785102 8.9612943,9.3629204 8.2055375,9.7011358 7.9041369,9.7543684 7.5903617,9.7292561 7.2859374,9.7200459 Z M 1.6906289,8.6704456 C 1.1925539,8.6319405 0.53705489,8.685449 0.54083372,8.0024028 0.46231713,7.7505811 1.1640391,7.5957965 0.69220061,7.5624198 0.23940724,7.5059337 -0.00364923,6.4176608 0.56266422,6.2857663 0.96952026,6.1951284 0.95325427,6.0956159 0.54313569,6.0900329 0.30884968,5.9374211 0.43775457,5.4943472 0.20561345,5.3572629 0.64288899,5.1727241 0.4279261,4.544018 0.97849713,4.6043729 1.3888704,4.5288358 1.7891515,4.3600875 2.2122383,4.4266826 4.1887066,4.543621 6.1579198,4.8465524 8.0728131,5.3521516 8.5952583,5.4686689 9.1178371,5.6193301 9.5941826,5.85987 9.9018125,5.9918239 9.6651907,6.3035104 9.5698751,6.4758717 9.1859963,6.4512914 8.9119362,6.6261981 8.7514999,6.9341114 8.3055501,6.9164178 8.1196244,7.1946686 8.0022308,7.5198311 7.1503447,7.8876514 6.2009461,7.8998674 5.2978933,8.0567251 4.6151727,8.1621715 3.9250607,8.1943913 3.2406475,8.2778912 2.734695,8.349929 2.2644107,8.5797804 1.7703313,8.6817445 l -0.07971,-0.011295 z"
       id="path8" /></g></svg>
