<?xml version="1.0" encoding="UTF-8" standalone="no"?>
<!-- Created with Inkscape (http://www.inkscape.org/) -->

<svg
   width="49.94875"
   height="49.934597"
   viewBox="0 0 13.215606 13.211862"
   version="1.1"
   id="svg1"
   xml:space="preserve"
   xmlns="http://www.w3.org/2000/svg"
   xmlns:svg="http://www.w3.org/2000/svg"><defs
     id="defs1" /><g
     id="layer1"
     transform="translate(-0.00911392,-0.01620737)"><path
       style="fill:#000000;stroke-width:0.0423771"
       d="M 6.4881522,13.221491 C 4.7908177,13.127551 3.060222,12.488144 1.9147365,11.155907 0.99949751,10.046239 0.31710511,8.703579 0.04647951,7.2719931 -0.1210346,6.1479726 0.30562074,5.0544894 0.71125868,4.0344146 0.51447494,3.2058072 0.36536028,2.3539646 0.33926746,1.5011628 0.29295547,0.59752552 1.3174989,0.78099734 1.8822926,0.89037598 2.4966095,0.88408976 3.1715404,1.2516774 3.7168221,0.94637606 4.5743778,0.51255389 5.5249831,0.28454551 6.4627654,0.11730646 7.2709671,0.0188635 8.0550969,0.27083559 8.8387545,0.42597858 9.3657813,0.68154716 9.8529144,0.87013733 10.324683,0.3845767 c 0.519048,-0.41283074 1.542731,-0.63114567 1.807364,0.18562448 0.136224,0.78139092 0.142304,1.59914532 0.02725,2.38568402 0.561524,0.7453674 0.742336,1.6968517 0.965332,2.5889217 0.07168,0.8472684 0.20967,1.7159682 -0.0571,2.546071 -0.2434,1.1511402 -0.728974,2.2957831 -1.637456,3.0553851 -0.588848,0.720717 -1.337864,1.306912 -2.2166242,1.59943 -0.861836,0.351918 -1.7982212,0.518571 -2.7253071,0.475797 z m 0.029565,-1.754253 C 7.3296118,11.41174 8.1507039,11.332718 8.8969037,10.970396 9.8259282,10.536746 10.61086,9.8131015 11.273993,9.0272103 11.731419,8.4677197 10.765681,7.91054 10.426129,7.5081799 9.33685,6.497696 7.766048,6.1548908 6.3442398,6.4506208 4.6966777,6.6660008 3.308534,7.9432502 2.6635324,9.4757732 c 0.1966327,0.5962328 0.8452127,1.0093278 1.3808828,1.3147948 0.74653,0.43192 1.5935081,0.82959 2.473302,0.67667 z m 0.05532,-1.243406 C 5.9510009,10.06951 5.4274301,9.575237 5.1218969,9.0141432 5.1556648,8.2880001 6.1615072,8.2681642 6.7046311,8.1577551 7.3478317,8.1375199 8.0804771,8.1046158 8.6630525,8.3288692 8.5648912,8.8521576 8.1994196,9.3390164 7.8767385,9.7645085 7.5560532,10.143128 7.0507006,10.31328 6.5730372,10.223832 Z M 3.8057691,6.8849018 C 4.5689149,6.8973763 5.3326281,6.2050194 5.1862217,5.3833807 5.0831753,4.7085701 4.2143447,4.3397653 3.6199768,4.5394435 3.0012743,4.8516773 2.4545517,5.5358141 2.6456453,6.2820066 2.7486793,6.8510285 3.3302115,6.9837595 3.8057691,6.8849018 Z M 3.9848276,5.9828442 C 3.3012339,5.8422657 3.7787377,4.7689256 4.3554001,4.9838246 5.1266964,5.221948 4.6184062,6.135553 3.9848276,5.9828442 Z M 9.0694578,6.2092725 C 9.7417229,6.0581781 10.10858,5.1570827 9.6974962,4.5766931 9.3737416,3.9668277 8.5899829,3.6072862 7.9759291,4.0033264 7.3292049,4.3288516 6.8584839,5.3500607 7.5993873,5.8436222 8.0401907,6.0809191 8.5618551,6.325831 9.0694578,6.2092725 Z M 8.215773,5.4316894 C 7.1786478,5.2172534 8.496479,3.8254197 8.8375282,4.7858763 8.9592176,5.1787002 8.5916109,5.5109437 8.215773,5.4316894 Z M 1.7439884,6.0215055 C 2.6075476,4.6920556 3.982306,3.7172143 5.5282362,3.4543144 7.0347104,3.1502487 8.6429015,3.3532117 10.010459,4.0802999 10.680971,4.361892 11.22532,4.8669292 11.777156,5.3330497 11.672774,4.4913847 11.159222,3.7604958 10.487433,3.2857996 9.8730133,2.6121895 9.0938462,2.0939749 8.2073954,1.8938852 7.6478821,1.6346729 7.6655895,2.8878005 6.9616926,2.5004852 6.682261,2.1802641 6.8027657,1.4093459 6.2071387,1.7696592 6.3901543,2.4110824 5.3442232,3.0421034 5.0910891,2.2997325 4.8012926,1.7675452 3.981732,2.4574282 3.5752996,2.6246681 2.9898267,2.9641778 2.6674142,3.5971346 2.3012938,4.1477313 2.5388588,3.9422834 3.1272905,3.4835967 3.2370664,3.5106939 2.7291521,4.0113774 2.2157077,4.540271 1.8684621,5.1704885 1.8061225,5.5074476 1.7726305,5.7992163 1.6723162,6.122062 Z"
       id="path23" /></g></svg>
