<?xml version="1.0" encoding="UTF-8" standalone="no"?>
<!-- Created with Inkscape (http://www.inkscape.org/) -->

<svg
   width="49.628376"
   height="49.644051"
   viewBox="0 0 13.13084 13.134989"
   version="1.1"
   id="svg1"
   xml:space="preserve"
   xmlns="http://www.w3.org/2000/svg"
   xmlns:svg="http://www.w3.org/2000/svg"><defs
     id="defs1" /><g
     id="layer1"
     transform="translate(-0.06363138,-0.04823193)"><path
       style="fill:#000000;stroke-width:0.0417057"
       d="M 6.5341394,13.159224 C 5.5628249,13.086204 4.6232027,12.82371 3.7302971,12.440425 2.4683226,12.052446 1.3706231,11.161355 0.79356709,9.9665787 0.11614859,8.6594227 0.00480161,7.1355091 0.08706172,5.687815 0.23235531,4.3448005 0.99438049,3.1289501 2.0604354,2.3168225 3.1554838,1.3445677 4.5475413,0.79331317 5.9170631,0.33136158 7.1468815,-0.04309279 8.5741879,-0.13165657 9.6958068,0.60133214 10.563207,1.1085798 11.47771,1.5990551 12.092594,2.4211192 c 0.812727,0.8498189 1.01062,2.0717313 1.09927,3.1977172 0.01495,1.4147985 -0.0066,2.932029 -0.846947,4.1421322 -0.570102,0.9617404 -1.41945,1.7205784 -2.3925052,2.2585584 -0.7170441,0.41931 -1.4745546,0.886727 -2.3210531,0.93638 C 7.2371836,12.85054 6.9602626,13.288154 6.5341394,13.159224 Z M 7.1436762,11.313305 C 7.8240054,10.986174 8.5474502,10.736243 9.1669151,10.289694 10.394329,9.601274 11.279629,8.2531498 11.248423,6.8237857 11.543366,5.9086801 10.436813,6.4386943 9.9450474,6.2625216 9.2358435,6.0721513 8.4409427,6.420097 7.8020129,5.9618997 7.1723891,5.7568839 6.9829673,4.8616462 7.4957411,4.4333383 8.2777397,3.8578577 9.3567063,3.6696175 10.296003,3.9099093 10.568447,3.9491843 11.24434,4.4653969 10.82965,3.8829022 10.448579,3.2922682 9.9254159,2.823822 9.3265272,2.4627392 8.9878207,2.3251091 8.4917537,1.6339719 8.1866555,1.9237318 7.8115872,2.4645877 7.0108804,2.6617746 6.388594,2.5866639 5.9134906,2.4642965 6.2484352,1.6386298 5.6318878,2.0832101 4.8123251,2.4268865 3.9042204,2.6709897 3.281862,3.346262 2.5358322,3.9545321 1.9322332,4.7932742 1.8353117,5.7733038 2.7614041,5.2007614 3.7600203,4.594508 4.8551738,4.3684538 5.5328333,4.2523345 6.4663852,4.1890701 6.842632,4.9020144 7.1632551,5.6199495 6.5209337,6.2461863 5.986775,6.6280011 5.4531641,7.1921507 4.6754909,7.1291196 3.9863616,7.3059219 3.2975953,7.5004148 2.7902964,8.0313683 2.1836713,8.3774793 c 0.2911504,1.0364536 1.0631839,1.9722147 2.1229412,2.2757527 0.7507897,0.310012 1.5221588,0.58421 2.339494,0.638473 0.167169,0.0016 0.3460163,0.155912 0.4975697,0.0216 z M 6.4221805,8.9245114 C 5.8297303,9.0205293 5.088654,8.0822368 5.9475951,7.909676 6.673851,7.7721948 7.0490249,7.0108635 7.7474755,6.8388078 8.6032563,6.6780478 8.8166524,7.8862824 8.157952,8.2757537 7.6894819,8.6918832 7.0581646,8.975152 6.4221805,8.9245114 Z M 3.5564556,6.8127249 C 3.9784681,6.3042486 4.7290174,5.9424583 5.3865517,6.1716037 6.1318211,6.0591294 5.2476843,5.366381 4.8294915,5.6110647 4.2630022,5.7392124 3.189851,6.0737536 3.3819628,6.8063176 c 0.049351,0.038088 0.1227994,0.04138 0.1744928,0.00641 z M 8.5703695,5.7283231 C 9.0506684,5.5249743 10.372653,5.9982049 10.018858,5.0756738 9.5244708,4.6139724 8.6634177,4.7784882 8.1285277,5.094753 7.7480325,5.4111305 8.1512037,5.9139333 8.5703695,5.7283231 Z"
       id="path20" /></g></svg>
