

<svg
   width="36.986275"
   height="48.774166"
   viewBox="0 0 9.7859514 12.904832"
   version="1.1"

   id="hashtag-svg"
   >
     
     <g id="hashtag-g" transform="translate(-1.7085021,-0.07391388)">
     <path
       style="fill:#000000;stroke-width:0.0428824"
       d="M 7.8603196,12.960451 C 7.3141743,12.717481 7.5788922,12.017549 7.4916245,11.552047 7.4672988,10.827954 7.4467344,10.103722 7.4185208,9.3797661 6.7462285,9.4968584 6.0688504,9.5960819 5.401765,9.7374559 5.3529601,10.549194 5.2696196,11.364333 5.0973063,12.156203 5.0212817,13.023057 4.0507061,12.264009 3.5937194,12.137429 2.9197859,12.005606 3.0890114,11.280376 3.1370188,10.782361 3.1369784,10.476779 3.3549242,9.9134775 2.8364679,10.17058 2.2855736,10.396264 1.4728959,10.209304 1.7731328,9.4654584 1.8460899,8.8539892 1.8523009,8.2052034 2.140141,7.6510977 2.5169668,7.1828224 3.5864467,7.6294365 3.4394581,6.8260521 3.4885563,6.1660719 3.5465705,5.5064621 3.5859381,4.8459342 3.2506989,4.837474 2.9048523,4.87216 2.5759384,4.8379596 2.0931289,4.567521 2.6785128,4.1292863 2.4331931,3.7202544 2.2793444,3.1669346 2.6298477,2.5509622 3.2625767,2.7239308 4.0656281,2.9434018 3.7038454,1.9521848 3.8597303,1.4777455 4.1791756,1.0901916 4.7582999,0.98414365 5.1836458,0.71044297 5.605129,0.38797026 6.3534207,0.44653347 6.1199035,1.1517279 6.078892,1.6561444 6.0388725,2.1606889 5.9928804,2.664667 6.3949456,2.6548712 6.7973408,2.6524017 7.1990745,2.6337129 7.2262814,1.9359921 7.0598867,1.217626 7.2558378,0.53623447 7.6111304,0.21373647 8.243024,0.26243101 8.7298567,0.14265168 9.0538027,-0.02146803 9.5626749,0.10728858 9.481055,0.539839 9.495757,1.2239112 9.51024,1.9079876 9.52307,2.592097 c 0.554083,-0.01321 1.108285,-0.034562 1.662524,-0.030895 0.49754,0.2197671 0.242679,0.8528808 0.250195,1.2818004 -0.07904,0.3124396 0.183664,0.7927284 -0.302635,0.84997 -0.490436,0.088238 -1.1807597,-0.068859 -1.5628765,0.1089515 0.087542,0.420322 -0.1301212,1.2031276 0.1457448,1.4106521 0.4304117,-0.011725 1.2579937,-0.3747352 1.3503037,0.2648756 0.0593,0.5714622 0.194716,1.1509709 0.06658,1.7228 0.31037,0.5594317 -0.484708,0.639149 -0.860421,0.6810869 -0.4949187,-0.014591 -0.7540836,0.1808028 -0.6051367,0.6975924 -0.00979,0.8555961 0.112175,1.7218061 -0.054745,2.5684631 0.3438963,0.606959 -0.5941676,0.655081 -0.9772557,0.730569 -0.2546825,0.03086 -0.5179809,0.144681 -0.7750285,0.08249 z M 6.393688,6.7758263 C 6.8246876,6.6698465 7.541118,6.7825701 7.3178956,6.1349154 7.2208713,5.7260998 7.4465079,5.0108686 7.1590411,4.779249 6.7137106,4.915385 5.7143708,4.4768043 5.7851701,5.1817962 5.7394226,5.754799 5.6837881,6.3282005 5.64669,6.9011396 5.8959215,6.8607839 6.1447277,6.8178191 6.393688,6.7758263 Z"
       id="hashtag-path" />
       
     </g>
       
  </svg>
