<?xml version="1.0" encoding="UTF-8" standalone="no"?>
<!-- Created with Inkscape (http://www.inkscape.org/) -->

<svg
   width="48.139523"
   height="44.458923"
   viewBox="0 0 12.736915 11.76309"
   version="1.1"
   id="home-svg"

   xml:space="preserve"
   xmlns="http://www.w3.org/2000/svg"
   xmlns:svg="http://www.w3.org/2000/svg">
   
   <defs id="defs1" />
   
   <g id="home-svg-group" transform="translate(-0.1739462,-0.61771656)">
      <path
       style="fill:#000000;stroke-width:0.0485731"
       d="M 1.1206745,12.344464 C 1.2430616,10.99362 1.5739273,9.6706587 1.7824759,8.3315432 2.0222603,6.9985799 2.2566061,5.6646146 2.5002956,4.3323685 3.2245367,4.5718066 3.9842412,4.7824784 4.6520116,5.1377944 4.6219256,5.768228 4.2737567,6.3730689 4.2671311,7.026514 4.0030029,8.7862632 3.7471966,10.547305 3.4794267,12.306476 c -0.7833686,0.02742 -1.567549,0.06682 -2.350827,0.07433 l -0.00792,-0.03634 z M 10.172097,12.07456 C 9.9524373,11.194296 9.7106967,10.318723 9.5963698,9.4168352 9.3558387,7.9870256 9.1496308,6.5497006 8.8580836,5.1301195 9.1671747,4.7035329 9.9605407,4.7231591 10.427244,4.3910431 c 0.305806,-0.2145957 0.587124,-0.3593704 0.548659,0.152398 0.468919,2.5519288 1.183887,5.0491319 1.781367,7.5713599 -0.842788,0.07066 -1.687008,0.131075 -2.531178,0.181421 -0.018,-0.07389 -0.036,-0.147775 -0.05399,-0.221662 z M 6.4284308,4.5191447 C 5.5559541,4.4924863 4.6924028,4.3635801 3.8582406,4.1028011 2.9681046,3.8532239 1.9762728,3.7011497 1.3327615,2.9662401 0.94694498,2.5546948 0.25973898,2.1665958 0.17394619,1.6310908 0.75011637,1.5886248 1.232137,2.1500086 1.8118606,2.2529247 2.8729648,2.5214698 3.8901515,2.9811308 4.9955194,3.04615 6.5192052,3.2035225 8.0722117,2.9811723 9.5333918,2.5422519 10.724597,2.1603262 11.861735,1.6159387 12.910862,0.93542704 12.58079,1.8108626 11.887125,2.4842538 11.12503,2.9975558 10.1791,3.8114743 8.951395,4.1727982 7.7478314,4.3963336 7.3150371,4.4921689 6.8727996,4.5615472 6.4284308,4.5191447 Z M 5.6380556,2.4890496 C 4.7588088,2.3776656 3.8618566,2.3638386 2.9983375,2.1554169 2.4322367,1.9246865 2.6295928,1.058827 2.9631913,0.76121335 3.8186035,0.98298014 4.6197951,1.4508947 5.526809,1.4534059 c 1.1232038,0.134427 2.2868811,-0.01941 3.3384411,-0.433946 0.5020286,-0.24525004 1.1935259,-0.78851022 1.4624009,0.044098 0.2568,0.6851206 -0.660953,0.7127079 -1.0883344,0.8875559 -0.9865861,0.232428 -1.9855055,0.4534044 -2.9972337,0.5335009 -0.2012087,0.00621 -0.4028727,0.017516 -0.6040273,0.00444 z"
       id="home-svg-path" />
    </g>
</svg>
