<?xml version="1.0" encoding="UTF-8" standalone="no"?>
<!-- Created with Inkscape (http://www.inkscape.org/) -->

<svg
   width="46.410507"
   height="47.585239"
   viewBox="0 0 12.279446 12.590262"
   version="1.1"
   id="register-svg"
   xml:space="preserve"
   xmlns="http://www.w3.org/2000/svg"
   xmlns:svg="http://www.w3.org/2000/svg">
     
     <g id="layer1" transform="translate(-0.52138391,-0.46302604)">
        <path
          style="fill:#000000;stroke-width:0.0375872"
          d="M 1.3717261,13.041394 C 0.79105557,12.974687 1.2748085,11.980714 0.9314194,11.902918 0.21189827,11.784323 0.68459846,10.745355 0.56274746,10.21503 0.61770996,7.6130732 0.60285098,5.0083602 0.78657204,2.4109161 0.89417521,2.0243979 0.59884079,0.98610001 1.2493912,1.1997441 1.565717,1.2860481 1.919419,1.5123902 1.8780616,1.0015474 2.3584418,0.55098522 3.1545871,0.8120796 3.7654675,0.68994515 c 1.4656527,-0.078203 2.9417804,-0.133775 4.4008836,-0.22691907 0.4249741,0.20767375 0.204754,0.79799962 0.282948,1.19290382 -0.047445,0.3048 0.2495527,0.7709654 -0.2022686,0.859854 -1.9372707,0.1484077 -3.8763378,0.2730553 -5.8133625,0.4243984 0.079119,2.5791456 0.2445501,5.1585222 0.1419825,7.7398797 -0.091275,0.611519 0.8867077,0.194239 1.286814,0.33024 2.2035731,0.05479 4.4071678,0.108736 6.6107425,0.163468 0.170936,-1.8359078 0.332562,-3.6728305 0.508958,-5.5081333 0.175316,-0.7111523 1.082864,-0.4677093 1.623557,-0.4450784 0.409736,0.4274804 0.03635,1.157698 0.102199,1.7081368 -0.116414,1.8809735 -0.231334,3.7620389 -0.348619,5.6429589 -0.306054,0.51035 -1.031596,0.225411 -1.525325,0.314401 -3.1313664,0.05183 -6.2629515,0.128562 -9.3941314,0.167233 l -0.068186,-0.01182 z M 5.3290715,8.2568067 C 4.8729231,7.8726385 5.5900605,7.3077179 5.5920947,6.80754 5.772344,6.2400917 6.2327701,5.8222868 6.6249636,5.391678 8.0962154,3.989607 9.5518992,2.5697769 11.035001,1.1809858 11.577487,1.0650576 11.922195,1.7302519 12.292003,2.0415849 12.950246,2.4994147 12.252921,3.0595285 11.849802,3.3715838 10.30726,4.7745563 8.7517929,6.1740994 7.2191598,7.5814215 6.5884136,7.7925157 5.9853005,8.1884878 5.3290699,8.2568071 Z"
          id="register-svg-path" />
     </g>
</svg>
