<?xml version="1.0" encoding="UTF-8" standalone="no"?>
<!-- Created with Inkscape (http://www.inkscape.org/) -->

<svg
   width="48.863895"
   height="47.604366"
   viewBox="0 0 12.928572 12.595322"
   version="1.1"
   id="login-svg"
   xml:space="preserve"
   xmlns="http://www.w3.org/2000/svg"
   xmlns:svg="http://www.w3.org/2000/svg">
     
     <g  id="login-svg-group" transform="translate(-0.18175768,-0.18803687)">
        <path
       style="fill:#000000;stroke-width:0.0407935"
       d="M 6.0716371,12.783359 C 4.2989591,12.760023 2.5254294,12.778579 0.75321346,12.732519 0.37270852,12.229298 0.59968003,11.470692 0.47536826,10.867056 0.44433606,10.156964 0.36560935,9.4452809 0.38561221,8.7349941 0.6221769,8.2824631 0.92661155,9.2157243 0.96346424,8.5491259 1.3846714,8.3899338 1.9670596,8.7685419 2.3590679,8.9058738 c 0.050575,0.6148149 0.093259,1.2303752 0.1300988,1.8461682 2.8120909,0.0056 5.6242599,0.0028 8.4363363,-0.0079 -0.113071,-2.2516366 -0.279896,-4.501865 -0.36431,-6.7540954 0.234232,-0.4291565 -0.131049,-1.4252541 0.492014,-1.4189119 0.204724,0.2320151 0.461137,0.1880863 0.726925,0.1227199 0.55568,-0.2721807 1.025635,0.1004003 0.898515,0.6958252 0.139602,2.1389925 0.314931,4.2772288 0.431683,6.4166803 -0.374623,0.1537041 -0.185737,0.5876689 -0.216089,0.9374339 -0.03845,0.320342 0.131489,0.709276 -0.162398,0.95154 -0.431628,0.396839 -0.602756,1.157596 -1.326219,0.957274 -1.7779522,0.04348 -3.55595,0.09744 -5.3339869,0.130751 z M 3.3607374,12.337814 c -0.08362,-0.01699 -0.015988,0.01758 0,0 z M 5.8652795,9.5176466 C 5.1947918,9.2601908 5.1580321,8.4058027 5.6242655,7.946263 5.8381926,7.7882784 6.5733601,7.4772201 5.9003308,7.537205 4.2007948,7.439997 2.4967274,7.3923639 0.80000307,7.2644965 0.23760424,6.7941332 1.545945,6.0203122 0.59299521,5.6964833 0.21643138,5.0042527 1.4496352,5.1802823 1.8714514,5.1916515 c 1.24019,0.029002 2.4808409,0.086229 3.720735,0.098286 C 5.482327,4.8966622 4.8325844,4.2432498 5.4141519,3.9771844 6.1441811,4.1510383 6.890668,4.2958414 7.6011418,4.5306086 8.446057,5.1854092 9.3104343,5.8206839 10.128513,6.5071553 10.442269,7.1093151 9.3944003,7.3945422 9.1059811,7.8339917 8.4567317,8.393819 7.8147679,8.9622217 7.1584767,9.5138019 6.7306771,9.5377362 6.291764,9.5545277 5.8652795,9.5176466 Z M 0.63814139,4.2117648 C 0.34514384,3.7054104 0.44324715,3.0134256 0.30532953,2.4329234 0.25253641,1.910246 0.18232079,1.3673381 0.18175769,0.85358505 0.43484068,0.56687263 0.75076176,1.1303974 0.9330217,0.6501989 4.8060053,0.46878609 8.6824852,0.34580759 12.556861,0.18803686 13.26637,0.4328478 12.39925,1.1827744 12.321847,1.63258 12.12643,1.9722254 12.027596,2.594653 11.519892,2.5256458 8.4721278,2.4927071 5.4245437,2.4439793 2.3767192,2.4171285 2.275747,2.9865724 2.7919941,3.8987269 2.1887313,4.2071425 1.6357224,3.9573406 1.1758893,4.0452316 0.63814139,4.2117648 Z M 7.6349834,1.2747693 c -0.096758,-0.018032 -0.017388,0.017939 0,0 z"
       id="login-svg-path" />
    </g>
</svg>
