<?xml version="1.0" encoding="UTF-8" standalone="no"?>
<!-- Created with Inkscape (http://www.inkscape.org/) -->

<svg
   width="42.429832"
   height="48.149143"
   viewBox="0 0 11.226226 12.739461"
   version="1.1"
   id="music-svg"
   xml:space="preserve"
   xmlns="http://www.w3.org/2000/svg"
   xmlns:svg="http://www.w3.org/2000/svg">
   <defs id="music-svg-defs1" />
   <g id="music-svg-group"  transform="translate(-1.0356211,-0.36575299)">
      <path
       style="fill:#000000;stroke-width:0.043051"
       d="M 5.4041013,13.095712 C 4.6548355,13.018498 4.0283691,12.379398 3.829398,11.675367 3.6785728,10.987236 3.8674127,10.168186 4.5402593,9.8259182 4.8633175,9.6484914 5.4667679,9.7256342 4.9953973,9.3030659 4.0311177,7.9084156 3.0131513,6.5483555 2.1121945,5.1114674 1.3794878,3.8881987 0.86217503,2.4488008 1.0898812,1.0067938 1.211582,0.39539046 2.0797777,0.44138277 2.577871,0.3821456 3.2614819,0.31759024 3.9433114,0.4451329 4.5634042,0.73947849 5.7983882,1.2750548 6.9960667,1.8931855 8.2239997,2.4423489 9.303983,2.814665 10.504145,3.0597386 11.616957,2.6735065 12.393265,2.4531141 12.457051,3.4708806 11.87112,3.7504355 11.52476,4.159134 11.02379,4.3475074 10.513251,4.454902 10.068869,4.660854 9.409989,4.439684 9.135855,4.8938315 9.144855,5.4497839 9.718661,6.0358145 9.276081,6.6065744 8.988269,7.1647321 8.1112095,7.4576256 7.6618237,6.9195796 7.1933622,6.518554 7.3428774,5.7689653 7.8456783,5.4708939 8.4837921,5.1321839 7.6016799,4.5452813 7.2280034,4.4011874 6.0706873,3.836749 4.8851548,3.3211087 3.6784281,2.8701779 4.1402204,4.116259 5.0068104,5.139582 5.6970836,6.2586997 6.3143085,7.2434936 7.0093864,8.1826469 7.5742507,9.1983666 7.9360406,9.9726173 8.0163043,10.876279 7.8387816,11.706139 7.6580542,12.203038 7.3122094,12.634426 6.814094,12.841839 6.375875,13.052561 5.8878943,13.135057 5.4041013,13.095712 Z"
       id="music-svg-path" />
   </g>
</svg>
