<?xml version="1.0" encoding="UTF-8" standalone="no"?>
<!-- Created with Inkscape (http://www.inkscape.org/) -->

<svg
   width="49.988182"
   height="49.983791"
   viewBox="0 0 13.226039 13.224878"
   version="1.1"
   id="svg1"
   xml:space="preserve"
   xmlns="http://www.w3.org/2000/svg"
   xmlns:svg="http://www.w3.org/2000/svg"><defs
     id="defs1" /><g
     id="layer1"
     transform="translate(-0.00171631,-0.00199564)"><path
       style="fill:#000000;stroke-width:0.0446986"
       d="M 0.14859404,13.215097 C -0.34103358,12.689389 0.51975451,11.963118 0.88864443,11.606847 1.3762332,11.263137 1.9160356,10.888534 2.0267553,10.231153 2.1627542,9.5033954 2.1302982,8.7308781 2.3896054,8.034698 2.8498832,7.1263811 3.8838348,6.739824 4.8229323,6.8495621 5.2387111,6.8798583 5.7203787,7.1647756 5.987333,6.9671711 6.4691973,7.4150447 6.9646573,7.8475164 7.4407441,8.3018369 6.9564628,8.5598291 7.2656091,8.9729214 7.3619096,9.3847541 7.6037271,10.637053 6.9087219,11.977004 5.8432645,12.562678 5.0193684,13.09985 3.9709115,13.334251 3.045527,12.942298 2.2429354,12.74005 1.3465239,12.481589 0.55874434,12.874882 0.44888421,13.012216 0.3773904,13.286928 0.14859424,13.2151 Z M 7.6837015,7.9052706 C 7.179146,7.4452424 6.6717388,6.9885086 6.1710708,6.5239042 6.3888854,6.2488282 6.6358565,5.617634 6.8730307,6.2439062 7.2542856,6.7342516 7.63787,7.2226112 8.0205616,7.7117311 7.9146266,7.7749434 7.7996382,8.0861269 7.6837015,7.9052706 Z M 7.8341035,6.7504551 C 7.6182468,6.2651293 6.6964941,5.7951659 7.0762778,5.2914673 8.299743,3.6602708 9.5050078,2.0126322 10.744067,0.39515008 11.186919,-0.12156774 11.969349,-0.10741508 12.46711,0.31162688 13.357325,0.64266208 13.413073,1.9182445 12.908955,2.6165769 11.404313,4.2244937 9.8674824,5.8000775 8.3334956,7.3773882 8.1616716,7.1732387 7.9998021,6.9600228 7.8341035,6.7504551 Z"
       id="path24" /></g></svg>
