<?xml version="1.0" encoding="UTF-8" standalone="no"?>
<!-- Created with Inkscape (http://www.inkscape.org/) -->

<svg
   width="46.533607"
   height="47.177906"
   viewBox="0 0 12.312016 12.482488"
   version="1.1"
   id="pics-svg"
   xml:space="preserve"
   xmlns="http://www.w3.org/2000/svg"
   xmlns:svg="http://www.w3.org/2000/svg">
     
     <g id="pics-svg-group" transform="translate(-0.63486027,-0.28021713)">
     
     <path
       style="fill:#000000;stroke-width:0.0373933"
       d="M 1.9971177,12.744408 C 1.4705975,12.563099 1.8134838,11.435468 1.158578,11.632432 0.35056085,11.78334 0.73391599,10.756993 0.67701613,10.286696 0.77135194,7.4677359 0.90800315,4.6494767 1.0998026,1.8356393 0.95954113,1.2228367 1.4769873,1.0355137 1.8759099,1.2515553 1.5931191,0.54047153 2.5017949,0.6652997 2.9213839,0.63736947 5.4374393,0.52306604 7.95312,0.36974654 10.469396,0.28021713 c 0.357977,0.37104029 0.585288,1.01946767 0.660716,1.56527707 -0.286023,0.4976942 0.7571,-0.021305 1.025484,0.060838 0.814946,-0.3411142 0.860063,0.6185909 0.743881,1.165474 -0.15633,3.1445471 -0.310307,6.2953802 -0.466412,9.4361578 -0.428254,0.413003 -1.15806,0.121557 -1.712218,0.224131 -0.397459,-0.02276 -0.8200462,0.06366 -1.2049267,-0.0192 -0.2693172,-0.15886 -0.031904,-0.560934 -0.4709062,-0.385352 -2.3227107,0.144814 -4.6451562,0.294032 -6.9680909,0.435162 l -0.079828,-0.0184 z M 2.2721129,9.7648571 C 2.9563769,9.1273316 3.619673,8.4669162 4.3174091,7.8441043 4.9153016,7.390594 5.2275474,8.6322532 5.6315037,8.459083 6.4547661,7.484258 7.2629731,6.4966022 8.0924959,5.5271623 8.6814262,5.2872973 8.9950974,6.2087539 9.4210067,6.4996679 9.9055904,7.023838 10.390091,7.5480847 10.874621,8.0723047 10.873117,6.1453119 10.815653,4.2179505 10.810176,2.29085 11.052513,1.8976926 9.9530805,2.3087247 9.6853597,2.2024039 7.2309655,2.3300653 4.7765987,2.4582568 2.3222459,2.5867108 c -0.010788,2.3322779 0.027731,4.6656489 -0.087816,6.9959359 0.036495,-0.011602 -0.055736,0.2793129 0.037683,0.1822104 z M 4.9358541,6.7664004 C 3.8138938,6.7072602 2.9821683,5.4584875 3.3662051,4.4025066 3.681132,3.3038758 5.1222325,2.7918562 6.0627417,3.432832 7.0384655,4.0031213 7.2007187,5.5095681 6.3504948,6.2642068 5.9809131,6.6255864 5.4499757,6.8125557 4.9358541,6.7664004 Z"
       id="pics-svg-path" />
       
      </g>
</svg>
