<?xml version="1.0" encoding="UTF-8" standalone="no"?>
<!-- Created with Inkscape (http://www.inkscape.org/) -->

<svg
   width="49.98769"
   height="49.924778"
   viewBox="0 0 13.225909 13.209265"
   version="1.1"
   id="svg1"
   xml:space="preserve"
   xmlns="http://www.w3.org/2000/svg"
   xmlns:svg="http://www.w3.org/2000/svg"><defs
     id="defs1" /><g
     id="layer1"
     transform="translate(-0.0092206,-0.02529592)"><path
       style="fill:#000000;stroke-width:0.0419877"
       d="M 6.3127547,13.230385 C 4.9908647,13.146372 3.6543594,12.824967 2.500682,12.160318 1.9218688,11.772555 1.4368193,11.259819 0.94098573,10.779412 0.08547977,9.6328153 -0.13396151,8.0981621 0.09271869,6.7093339 0.29790473,5.7468662 0.77112095,4.8684986 1.0845892,3.9438505 1.2645964,3.0069452 1.9033632,2.1974895 2.6733945,1.6570981 3.3330611,1.1947644 4.3466424,1.7312083 4.3424753,2.5346891 4.3637365,3.5179628 3.5357542,4.1900435 2.9299496,4.8511268 2.2271381,5.8803079 1.8897515,7.1930593 2.080338,8.430487 2.3393207,9.7954392 3.266673,11.050478 4.5911897,11.538876 5.8142343,11.987054 7.2107383,12.07032 8.4213059,11.5326 9.6054341,11.170027 10.546898,10.235731 11.066217,9.1294152 11.646174,8.0205328 11.826881,6.6879487 11.447423,5.4842094 11.284003,4.5289823 10.859244,3.5758488 10.028219,3.0236864 9.5788779,2.6011576 8.8848786,2.3990944 8.6548453,1.7818594 8.7733239,0.92595565 9.9261421,1.4802761 10.384024,1.7676938 c 0.608815,0.329033 1.213749,0.6924949 1.629519,1.2598588 0.55067,0.615982 0.875401,1.4119475 1.081079,2.2016999 0.233494,1.4149016 0.158198,2.8746562 -0.09503,4.2812228 -0.206104,0.8559977 -0.671683,1.6614207 -1.418269,2.1531017 -1.24932,0.97619 -2.8166801,1.56332 -4.4107419,1.550457 -0.2857862,0.01028 -0.5718845,0.02885 -0.8578234,0.01635 z M 6.34124,8.8913204 C 5.7982118,8.432482 6.0119807,7.6535538 5.8105891,7.0408425 5.5924539,6.1317832 5.490091,5.2059032 5.4292066,4.2745528 5.3850635,3.4543102 5.2272686,2.6506495 5.1795186,1.8307495 5.0669331,1.2877933 4.7070078,0.48850294 5.5095195,0.29783973 6.0512671,-0.1824634 7.0605453,-0.03561894 7.1065127,0.79946095 7.4551386,2.7826554 7.4091917,4.8130829 7.2852186,6.8152519 7.1605355,7.4207266 7.2706094,8.1293486 6.8997364,8.6492529 6.7688627,8.7911341 6.5432335,8.9332667 6.34124,8.8913204 Z"
       id="path25" /></g></svg>
