<?xml version="1.0" encoding="UTF-8" standalone="no"?>
<!-- Created with Inkscape (http://www.inkscape.org/) -->

<svg
   width="49.643822"
   height="37.230312"
   viewBox="0 0 13.134927 9.8505204"
   version="1.1"
   id="svg1"
   xml:space="preserve"
   xmlns="http://www.w3.org/2000/svg"
   xmlns:svg="http://www.w3.org/2000/svg"><defs
     id="defs1" /><g
     id="layer1"
     transform="translate(-0.06566152,-1.4823193)"><path
       style="fill:#000000;stroke-width:0.043161"
       d="M 12.577651,11.332367 C 11.745058,11.235763 10.959235,10.902372 10.118597,10.841541 9.2407296,10.696824 8.344453,10.673494 7.4584286,10.709073 6.9161515,10.69636 6.4667098,11.122744 5.9339332,10.916416 4.9096281,10.678093 3.853123,10.569096 2.8013857,10.642651 2.0354857,10.656233 1.2919188,10.851308 0.53863231,10.955606 -0.1066628,10.853046 0.35264873,10.003688 0.25616174,9.5505213 0.26322826,7.8475343 0.34222854,6.1402911 0.23327431,4.4398104 0.19250985,3.747205 0.00733093,3.0574449 0.08410084,2.3628219 0.35545691,2.1292694 1.1000156,2.3866544 1.2818995,2.0098859 1.4463977,1.5001735 2.2684002,1.7391115 2.7116081,1.5638098 c 0.8468864,-0.1925363 1.7202635,-0.01324 2.539101,0.2196432 0.560591,0.2227088 1.018952,0.6250456 1.5034537,0.971681 0.9867709,-0.7938427 2.263942,-1.1538466 3.5102352,-1.2533436 0.543132,-0.038803 1.12902,-0.019619 1.600255,0.2470889 -0.183115,0.8419471 0.854002,0.2354942 1.181313,0.7166449 0.21422,0.8222967 0.114639,1.6904313 0.153354,2.5330789 0.02476,1.7158579 -0.322914,3.4248439 -0.164941,5.1402849 0.08256,0.427865 0.213488,1.215999 -0.456728,1.193479 z m -0.09907,-0.857847 c -0.197661,-1.5835048 -0.03889,-3.1812829 0.110971,-4.7611393 0.08473,-0.9336369 0.171184,-1.8684415 0.229591,-2.803818 -0.265142,-0.010464 -0.974219,-0.4495828 -0.847799,0.084689 -0.01871,1.5881147 -0.18552,3.1709866 -0.233336,4.7583175 -0.0034,0.4556741 0.02432,0.9313363 0.01416,1.3738608 0.216542,0.805124 -0.851118,0.4601966 -1.298344,0.4792174 -0.8187558,0.019327 -1.673456,-0.056527 -2.4425386,0.2843036 1.1791897,-0.029335 2.3580866,0.126399 3.5065386,0.387466 0.311542,0.05998 0.664168,0.24073 0.960757,0.197103 z M 1.0905472,10.144854 C 2.3197946,9.7596788 3.6444023,9.7400511 4.9138805,9.9092133 5.1795854,9.9819532 5.5222029,10.008802 5.0892517,9.8025917 4.6048838,9.4494585 3.9635976,9.493694 3.3942628,9.4528341 2.7798769,9.4585891 2.1639881,9.563331 1.5655955,9.656329 0.99847333,9.3872785 1.2869648,8.5566888 1.1673391,8.0481505 1.0961023,6.2620988 1.2298863,4.4772131 1.2206899,2.6914293 1.2778997,2.3839989 0.55506531,2.6629056 0.44312848,2.6734464 c 0.35154128,1.8953615 0.18673406,3.8341109 0.31993195,5.7479573 -0.007963,0.6068555 0.089058,1.2101532 0.0554818,1.8166843 0.0913528,-0.02905 0.18241977,-0.05917 0.27200487,-0.09323 z M 6.3832381,9.5062533 C 6.3160825,7.818885 6.3202398,6.1295701 6.2715712,4.441601 6.2182431,4.0794554 6.3528191,3.6512167 6.244211,3.3192669 5.2226483,2.1648463 3.567749,1.6302447 2.0612039,1.9339561 1.3083932,1.8639228 1.7402143,2.6411501 1.7178039,3.0803772 1.832847,3.9515468 1.8209286,4.831095 1.9055337,5.7046626 1.8866537,6.7434776 1.8836581,7.7886056 1.9597243,8.8226687 2.9396851,8.5659893 3.993886,8.5904802 4.9735694,8.8404922 5.4980656,9.0773791 5.9941508,9.409581 6.3855534,9.835556 6.3884898,9.7257865 6.3846582,9.6160018 6.3832381,9.5062533 Z M 3.615185,7.1791348 C 3.195756,7.1847124 3.1962927,6.6329593 3.5548456,6.5925345 2.9223581,6.030166 4.5445165,5.7058085 4.1645305,6.4411044 3.6363186,6.5350859 4.4879861,6.9859731 3.8931572,7.1538931 3.8036998,7.1804863 3.7081468,7.1954973 3.615185,7.1791348 Z M 2.3912851,5.9509895 C 2.3698465,5.3595346 2.7482886,4.7707966 3.1886556,4.3894177 3.4460686,3.9518343 4.6360763,4.0782987 4.045494,4.6456157 3.8380842,4.8318174 4.0873201,5.6637553 3.5301884,5.5037314 3.4214337,5.1191741 2.9140319,5.9307264 2.8740552,5.3619127 2.9558001,5.1532796 3.628162,4.570591 3.1342662,4.9798927 2.7967184,5.2091736 2.704432,5.8226507 2.3912851,5.9509895 Z M 2.695927,4.3588591 C 2.5072199,4.0383418 3.1231365,3.5626322 3.1268057,4.1253404 3.0573346,4.2440537 2.8455241,4.5102506 2.695927,4.3588591 Z M 7.3177984,9.5178098 C 8.2522326,8.7917904 9.4869622,8.9014863 10.597931,8.8849042 c 0.442995,0.045669 1.019063,0.216164 0.87812,-0.4449364 0.0927,-1.6897932 0.07171,-3.3854471 0.08158,-5.0778805 -0.09369,-0.4275568 0.145177,-1.120644 -0.09116,-1.4181251 C 10.695703,1.7460515 9.8838197,1.9344309 9.1315114,2.1346829 8.3415266,2.3588405 7.5342801,2.6576804 6.9271416,3.22799 7.0590768,4.2311044 7.0143126,5.2552448 7.0616946,6.2681182 7.0821766,7.3900605 7.0810236,8.512341 7.1363006,9.633317 7.1959916,9.593562 7.2566942,9.55535 7.3177984,9.5178098 Z M 9.6546393,7.5662367 C 9.2263955,7.5604735 8.279116,7.2744857 8.9422737,6.8049667 9.1106082,6.6472441 9.6719771,6.3863913 9.1153579,6.5687982 8.5467905,6.582609 8.1179637,7.3645215 7.6086684,7.1466297 7.4386168,6.5834389 8.2614876,6.2740279 8.6556783,6.0040624 9.3238396,5.7077117 10.19671,5.5056444 10.843492,5.9516257 11.360931,6.6117499 10.332999,6.5742942 9.9197877,6.5997923 9.6083466,6.6097426 8.6814084,7.1325621 9.4772386,6.9872376 9.9960616,6.8741825 10.446505,7.6324092 9.6546393,7.5662367 Z M 9.8222487,5.4368474 C 9.2760424,5.2609341 9.4984824,4.6419613 9.0426671,4.3511234 8.8141088,4.0516154 9.23139,3.7714551 9.4827993,4.0041887 9.077212,3.7894408 9.4078296,3.2658944 9.7009913,3.6944648 10.046932,4.1383808 10.569481,4.6139371 10.60042,5.1897807 10.391923,5.3665161 10.164096,5.2916291 9.9276305,5.4626304 L 9.8222406,5.4368486 Z"
       id="path26" /></g></svg>
