<?xml version="1.0" encoding="UTF-8" standalone="no"?>
<!-- Created with Inkscape (http://www.inkscape.org/) -->

<svg
   width="44.784737"
   height="49.047768"
   viewBox="0 0 11.849294 12.977221"
   version="1.1"
   id="svg1"
   xml:space="preserve"
   xmlns="http://www.w3.org/2000/svg"
   xmlns:svg="http://www.w3.org/2000/svg"><defs
     id="defs1" /><g
     id="layer1"
     transform="translate(-0.57589702,-0.20542371)"><path
       style="fill:#ffcc00;stroke:#000000;stroke-width:0.25;stroke-linecap:round;stroke-linejoin:round;stroke-miterlimit:20.8;stroke-opacity:1"
       id="path7"
       d="M 8.376035,7.7908905 C 8.2626031,7.9175675 4.7631531,5.9828934 4.5914008,5.9957698 4.4196485,6.0086462 0.97593867,8.2499699 0.84941931,8.1318462 0.72289994,8.0137225 2.4986846,4.4023568 2.4852344,4.2319404 2.4717843,4.0615239 0.21363301,0.63377935 0.32821668,0.50618421 0.44280035,0.37858906 4.1449158,2.4372166 4.3167355,2.4227138 4.4885551,2.4082111 7.9204579,0.06404192 8.0473055,0.18181273 8.1741532,0.29958354 6.3136771,3.8928041 6.3259983,4.0647887 6.3383196,4.2367734 8.4894668,7.6642135 8.376035,7.7908905 Z"
       transform="matrix(1.4262493,0,0,1.5805994,0.29331013,0.12369001)" /></g></svg>
