<?xml version="1.0" encoding="UTF-8" standalone="no"?>
<!-- Created with Inkscape (http://www.inkscape.org/) -->

<svg
   width="49.576248"
   height="49.610023"
   viewBox="0 0 13.117048 13.125986"
   version="1.1"
   id="svg1"
   xml:space="preserve"
   xmlns="http://www.w3.org/2000/svg"
   xmlns:svg="http://www.w3.org/2000/svg"><defs
     id="defs1" /><g
     id="layer1"
     transform="translate(-0.0704277,-0.0623921)"><path
       style="fill:#000000;stroke-width:0.0399826"
       d="M 6.8543009,13.178419 C 6.0604923,13.012174 5.406562,12.489071 4.6702726,12.172521 3.5643406,11.536104 2.5029083,10.786437 1.6182514,9.8622699 0.7821228,8.9300611 0.37646906,7.6978815 0.11808737,6.4953818 -0.12758172,4.9401856 0.59340332,3.2775086 1.8907945,2.3884006 2.7809949,1.5478174 4.0817349,0.9629558 5.3080582,1.3355904 5.8747792,1.2539168 6.5692143,2.3728839 6.7632016,1.4708249 7.3622132,0.41749266 8.6582728,0.14286626 9.7739537,0.07219129 10.718639,-0.01331786 11.664696,0.4663805 12.137712,1.2925913 c 0.619082,0.8592481 0.974287,1.8842656 1.023598,2.942152 0.139379,1.3778954 -0.296413,2.7392699 -0.871315,3.972955 C 11.697386,9.38204 10.795529,10.375007 9.7235204,11.130571 9.2118629,11.535986 8.608535,11.88013 8.3535751,12.512978 8.0183413,12.982813 7.4277257,13.243857 6.8543009,13.178419 Z M 7.4953655,10.614425 C 8.6309725,9.7386526 9.8495851,8.858206 10.512983,7.5450685 11.179403,6.36207 11.545674,4.9514889 11.20592,3.6074937 11.054638,2.9696507 10.749212,2.3329829 10.276649,1.8762129 9.772024,1.7289433 8.9414113,1.8549531 8.8027716,2.4524574 8.6848221,3.1359396 8.9344754,3.9761777 8.3338849,4.4928137 7.6821321,5.1272162 6.4414131,4.7889752 6.241061,3.886203 5.9820715,3.4547784 6.5443432,2.8586153 6.1469384,2.5325065 5.5938017,2.0778391 4.8229473,1.9287551 4.1393292,2.1280418 3.5483845,2.3864396 2.9649489,2.7216727 2.6452915,3.3076677 2.1485182,4.4043215 2.0125126,5.7161797 2.5010451,6.8415521 2.843475,7.9054379 3.7762739,8.5891316 4.6860619,9.1497232 5.5523054,9.7323843 6.5082953,10.164927 7.4358764,10.633276 l 0.059489,-0.01886 z"
       id="path19" /></g></svg>
