<?xml version="1.0" encoding="UTF-8" standalone="no"?>
<!-- Created with Inkscape (http://www.inkscape.org/) -->

<svg
   width="50"
   height="50"
   viewBox="0 0 13.229166 13.229167"
   version="1.1"
   id="time-svg"
   xml:space="preserve"
   xmlns="http://www.w3.org/2000/svg"
   xmlns:svg="http://www.w3.org/2000/svg">
     
     <g id="time-svg-group">
      <path style="fill:#000000;stroke-width:0.041512"
       d="M 6.322134,13.085893 C 3.7388846,12.968646 1.3289974,11.149484 0.55225537,8.676453 -0.25217622,6.3204342 0.52635795,3.5429522 2.4248607,1.9350037 3.3613016,1.1279561 4.541618,0.55645711 5.7713511,0.41781713 6.1706261,0.58642457 6.936368,0.59230908 7.0821324,0.92900304 6.8106402,1.2872957 6.5711901,1.7745609 6.1984137,2.0083323 4.0099487,2.1934605 2.0911623,4.0520542 1.9078595,6.251985 1.6724174,8.2823775 2.950178,10.339388 4.8445158,11.083502 6.8090376,11.927514 9.2788992,11.28001 10.558756,9.5632193 11.856252,7.9370025 11.841056,5.4484374 10.533015,3.8324355 10.291341,3.3981823 9.9062002,2.7142358 10.714785,2.6638121 11.152551,2.4558903 11.609734,2.2388911 11.831893,2.8247662 13.350321,4.729192 13.611663,7.5282005 12.4391,9.6697081 11.295147,11.880973 8.8009437,13.256189 6.322134,13.085893 Z M 6.6794975,8.3910682 C 5.826591,7.8591518 4.9407082,7.3652562 4.1247819,6.7817763 3.6945757,6.2257705 4.3609411,5.6213791 4.6847652,5.2020793 5.2911917,5.0972237 5.7421913,5.6953111 6.2666975,5.9165203 6.4502119,5.9661806 6.6751009,6.3183371 6.8193307,6.0792079 7.3715613,5.5066432 7.8712125,4.876012 8.4532684,4.3366973 9.0196389,4.3574295 9.728822,4.4529604 10.191748,4.7870858 10.39214,5.4814082 9.5818563,5.8069086 9.2119373,6.2581751 8.4509925,6.9601937 7.7188632,7.6961311 6.9397667,8.3767509 L 6.8096096,8.4051903 6.6794332,8.3911079 Z"
       id="time-svg-path" />
      </g>
</svg>
