<?xml version="1.0" encoding="UTF-8" standalone="no"?>
<!-- Created with Inkscape (http://www.inkscape.org/) -->

<svg
   width="50"
   height="50"
   viewBox="0 0 13.229166 13.229167"
   version="1.1"
   id="svg1"
   xml:space="preserve"
   xmlns="http://www.w3.org/2000/svg"
   xmlns:svg="http://www.w3.org/2000/svg"><defs
     id="defs1" /><g
     id="layer1"><path
       style="fill:#000000;stroke-width:0.047021"
       d="m 6.1719731,13.151385 c -0.1725216,-0.01533 -0.44726,-0.04768 -0.5123368,-0.06033 -0.030957,-0.006 -0.095594,-0.01751 -0.1437056,-0.02557 -0.079499,-0.01331 -0.1915733,-0.03467 -0.3249068,-0.06192 -0.027497,-0.0056 -0.1034044,-0.02468 -0.1686963,-0.04237 -0.065283,-0.01768 -0.158081,-0.04242 -0.2061918,-0.05496 -0.1381875,-0.03603 -0.5451651,-0.177874 -0.6090165,-0.212254 -0.011972,-0.0065 -0.027123,-0.01169 -0.033671,-0.01169 -0.00655,0 -0.055837,-0.02015 -0.1095118,-0.04479 -0.053592,-0.02463 -0.1228115,-0.05614 -0.1537412,-0.07002 -0.399551,-0.179274 -0.9168074,-0.490056 -1.2447818,-0.7479 -0.041994,-0.03303 -0.098129,-0.07679 -0.1246915,-0.09722 -0.026562,-0.02044 -0.0708,-0.05666 -0.098326,-0.08051 -0.027497,-0.02385 -0.072484,-0.06286 -0.09999,-0.0867 -0.068649,-0.05958 -0.2172375,-0.196899 -0.2590444,-0.239399 -0.018986,-0.01927 -0.042368,-0.03321 -0.052001,-0.03097 -0.00963,0.0023 -0.1152357,0.09652 -0.2346242,0.209513 -0.3453706,0.326867 -0.3633653,0.342495 -0.435756,0.378475 -0.060607,0.03012 -0.082772,0.03415 -0.1874488,0.03412 C 1.068322,11.906859 1.0462868,11.90279 0.97984459,11.87107 0.90081349,11.83334 0.804143,11.745185 0.77511192,11.684297 c -0.00954,-0.01995 -0.023569,-0.04964 -0.0312383,-0.06601 -0.0100073,-0.02143 -0.0139357,-0.494136 -0.0139357,-1.6906818 V 8.2666957 l 0.0296483,-0.059204 C 0.80634931,8.1142333 0.89052451,8.0302655 0.97952571,7.988162 l 0.078844,-0.037311 1.6539576,1.87e-4 c 1.3065107,1.402e-4 1.6631514,0.0035 1.6977006,0.015935 0.080435,0.028972 0.1208756,0.056483 0.1847365,0.1257413 0.083708,0.0908 0.1151703,0.1742986 0.1151703,0.3058202 0,0.084978 -0.0056,0.1113445 -0.036664,0.1760348 -0.036289,0.075322 -0.052376,0.094488 -0.262168,0.3114193 -0.2944914,0.3045624 -0.5199966,0.5414387 -0.5226154,0.5489726 -0.00468,0.014189 0.011411,0.030499 0.1278808,0.1274391 0.2088667,0.1738788 0.4409843,0.3358866 0.6372995,0.4448127 0.2280025,0.126507 0.5277408,0.263956 0.6880384,0.315514 0.033951,0.01092 0.072952,0.02488 0.0867,0.03102 0.038534,0.01722 0.3158625,0.09412 0.3998787,0.110883 0.041245,0.0083 0.097465,0.01975 0.1249627,0.02562 0.3962218,0.08445 1.0343537,0.07924 1.4620475,-0.01195 0.034324,-0.0074 0.079312,-0.01668 0.099972,-0.02078 0.1022914,-0.02035 0.4276005,-0.117322 0.5123461,-0.15273 0.013748,-0.0058 0.055929,-0.02274 0.093715,-0.03778 0.129611,-0.05158 0.2975591,-0.131361 0.4217455,-0.200362 0.022353,-0.01242 0.061728,-0.0343 0.087448,-0.04866 C 8.6885106,9.985669 8.9250241,9.8331864 8.9335538,9.822579 8.9373,9.818319 8.9848065,9.781637 9.0397735,9.74108 9.4112198,9.4671291 9.8244455,9.004603 10.044376,8.6166 c 0.0145,-0.025542 0.03667,-0.064563 0.04919,-0.086702 0.07979,-0.1402182 0.150628,-0.2886748 0.220063,-0.4613759 0.01917,-0.047686 0.03947,-0.097849 0.04508,-0.1114739 0.0056,-0.013622 0.01702,-0.047068 0.02525,-0.074312 0.0084,-0.027252 0.01945,-0.060691 0.02479,-0.074321 0.0056,-0.013606 0.01328,-0.038729 0.01759,-0.055757 0.0046,-0.017028 0.02132,-0.081132 0.03788,-0.1424402 0.04284,-0.1590254 0.07089,-0.305881 0.107642,-0.5629327 0.0291,-0.2037817 0.118856,-0.3122165 0.327273,-0.3954102 0.04826,-0.019281 1.911138,-0.019782 1.971946,-5.259e-4 0.212818,0.067276 0.349054,0.2602652 0.332004,0.4702487 -0.01074,0.132282 -0.03074,0.3251959 -0.03782,0.3647603 -0.0036,0.02045 -0.0132,0.081716 -0.02119,0.1362467 -0.008,0.054506 -0.02589,0.1548187 -0.03978,0.2229462 -0.01388,0.068119 -0.0276,0.1377909 -0.03048,0.1548219 -0.0029,0.017028 -0.01032,0.050474 -0.01654,0.074313 -0.0062,0.023847 -0.02342,0.093514 -0.03823,0.1548245 -0.03841,0.1590271 -0.138632,0.4832389 -0.19343,0.6256715 -0.156015,0.4055242 -0.283011,0.6759 -0.479877,1.0216586 -0.185073,0.3250484 -0.455313,0.7020024 -0.734547,1.0246084 -0.130862,0.151188 -0.489782,0.511318 -0.62204,0.624144 -0.055,0.04691 -0.102778,0.08826 -0.10622,0.09189 -0.0037,0.0037 -0.03433,0.02873 -0.06874,0.05574 -0.03433,0.02702 -0.06977,0.05595 -0.07866,0.0643 -0.01431,0.01339 -0.184176,0.140001 -0.300365,0.223878 -0.08071,0.05827 -0.334802,0.222361 -0.464461,0.299956 -0.147054,0.088 -0.5845495,0.310001 -0.7185283,0.364608 -0.048073,0.0196 -0.1127854,0.04643 -0.143715,0.0596 -0.075196,0.03202 -0.098297,0.04105 -0.1499534,0.05863 -0.024037,0.0082 -0.054995,0.01945 -0.068743,0.02503 -0.073513,0.02984 -0.2024885,0.07406 -0.2159939,0.07406 -0.00842,0 -0.025252,0.0051 -0.037224,0.01134 -0.046671,0.02437 -0.5179297,0.149346 -0.6652549,0.176407 -0.037785,0.007 -0.096839,0.01795 -0.1312104,0.02447 -0.1725031,0.03272 -0.5134312,0.07587 -0.7622622,0.09648 -0.1860084,0.01541 -0.729808,0.01502 -0.9059772,-6.37e-4 z M 0.0769624,6.6297568 C 0.04376,6.6164858 0.07415727,6.0439868 0.12372635,5.7337903 c 0.005611,-0.037478 0.0174897,-0.109929 0.0255331,-0.1610204 0.0164609,-0.1050042 0.0690236,-0.3679572 0.086794,-0.4335056 0.006547,-0.023872 0.0199215,-0.076792 0.0300224,-0.1176664 0.0743548,-0.3015574 0.21990292,-0.717067 0.35259101,-1.0067218 0.0164609,-0.035975 0.0299289,-0.068611 0.0299289,-0.072618 0,-0.011936 0.19340645,-0.3895839 0.23566238,-0.4601571 0.0216049,-0.036059 0.0392817,-0.067443 0.0392817,-0.069613 0,-0.013772 0.28231416,-0.4588802 0.31358046,-0.4943964 0.00655,-0.00834 0.044707,-0.059263 0.083895,-0.114119 0.064441,-0.090289 0.2465865,-0.324887 0.2639827,-0.3400451 0.00375,-0.00334 0.040685,-0.04524 0.081744,-0.092893 0.2993643,-0.3479329 0.7813232,-0.7895766 1.1016096,-1.0094596 0.014871,-0.010184 0.09739,-0.06736 0.1833523,-0.1269565 0.085952,-0.059597 0.1595119,-0.1083763 0.1634494,-0.1083763 0.00375,0 0.063692,-0.036225 0.1327349,-0.080547 0.069024,-0.044238 0.1280022,-0.0804643 0.1309672,-0.0804643 0.0028,0 0.035167,-0.0175285 0.071548,-0.0388966 0.06996,-0.0411503 0.3940894,-0.20365645 0.4785264,-0.23998223 0.027497,-0.0118526 0.083708,-0.0368934 0.1249628,-0.0555904 0.041245,-0.0187806 0.089039,-0.0383123 0.1062197,-0.043404 0.017208,-0.005008 0.056585,-0.020283 0.087448,-0.0336381 0.030958,-0.0134385 0.067434,-0.0292142 0.081183,-0.0351405 C 4.3757879,0.49837937 4.8160241,0.35430328 4.8598326,0.3447711 4.8838696,0.3397631 4.9232449,0.3296632 4.9472808,0.3228188 5.176574,0.2578797 5.581391,0.18003642 5.853258,0.14860193 c 0.3199686,-0.0369769 0.4179859,-0.0424023 0.7747669,-0.0429866 0.4609151,-6.9279e-4 0.7511978,0.0222863 1.1683885,0.092417 0.1832774,0.0308001 0.5232516,0.10566363 0.6123088,0.13481107 0.017209,0.005843 0.056585,0.0171947 0.087448,0.0257085 0.094856,0.0260423 0.4661624,0.14875876 0.5089608,0.16819873 0.022166,0.0100997 0.063038,0.0262928 0.090816,0.0359752 0.027777,0.009683 0.071455,0.0267936 0.09711,0.0379785 0.025627,0.0111849 0.057893,0.0247903 0.071549,0.0301323 0.1561168,0.0616837 0.6247952,0.30807638 0.815237,0.42856417 0.119846,0.07579 0.284025,0.1836656 0.290675,0.1909274 0.0037,0.00417 0.04564,0.034306 0.09372,0.067944 0.200712,0.1402783 0.595896,0.4775605 0.760029,0.6486973 0.06629,0.069112 0.112197,0.093335 0.123038,0.064939 0.0044,-0.011519 0.368305,-0.3922884 0.454026,-0.4750815 0.104925,-0.1013399 0.258279,-0.1475902 0.388344,-0.1171239 0.100462,0.023539 0.155476,0.050499 0.222868,0.1093112 0.06382,0.055674 0.09707,0.1047121 0.124914,0.1841664 0.01731,0.049414 0.01954,0.2363429 0.01971,1.6464546 1.42e-4,1.2142761 -0.0033,1.6011808 -0.01497,1.6349441 -0.03963,0.1156716 -0.131316,0.2147745 -0.253515,0.2740377 l -0.06248,0.030299 h -1.630748 c -1.7780134,0 -1.6840459,0.00334 -1.7955312,-0.070531 C 8.7356683,5.2055662 8.671835,5.1281068 8.6347792,5.0478511 8.6015767,4.9759003 8.5950298,4.8141124 8.6222465,4.7359268 8.6537653,4.6453959 8.6922054,4.601216 9.0443572,4.2513633 c 0.1932943,-0.1920459 0.35145,-0.355754 0.35145,-0.3637838 0,-0.014607 -0.1389076,-0.1550355 -0.2565938,-0.259322 C 8.7852382,3.3145721 8.3171022,3.0488479 7.8634822,2.9041206 7.7133699,2.8562092 7.6979659,2.8518691 7.5838523,2.8248248 6.9694579,2.6793379 6.4024542,2.673662 5.778155,2.8067116 5.3798102,2.891633 4.9043982,3.0873768 4.5541827,3.3106652 4.4992818,3.3456389 4.4447645,3.379861 4.4330079,3.3867052 4.3015825,3.4628288 4.0600559,3.6634388 3.8524613,3.8688148 3.4767127,4.2405197 3.1860279,4.6706281 2.9871968,5.1490566 2.9365982,5.27088 2.8684817,5.4629091 2.847915,5.5418626 c -0.0056,0.02045 -0.020764,0.078962 -0.034324,0.130045 -0.063973,0.240867 -0.095521,0.4458506 -0.1158157,0.75376 -0.00655,0.1046035 -0.01562,0.195176 -0.019453,0.2012693 -0.00748,0.011435 -2.57297257,0.014273 -2.6015173,0.0025 z"
       id="path53" /></g></svg>
