<?xml version="1.0" encoding="UTF-8" standalone="no"?>
<!-- Created with Inkscape (http://www.inkscape.org/) -->

<svg
   width="50"
   height="50"
   viewBox="0 0 13.229166 13.229167"
   version="1.1"
   id="svg1"
   xml:space="preserve"
   xmlns="http://www.w3.org/2000/svg"
   xmlns:svg="http://www.w3.org/2000/svg"><defs
     id="defs1" /><g
     id="layer1"><path
       style="fill:#000000;stroke-width:0.0432811"
       d="M 5.2815304,12.116642 C 3.6549705,12.066251 2.0285302,11.975345 0.40320419,11.926112 0.22518007,11.871629 0.36891664,11.550456 0.32305955,11.385005 0.4238438,11.03706 -0.15159759,11.362579 0.05261213,10.89116 0.03483528,9.2432895 0.09412975,7.5953881 0.0159112,5.9485462 0.01249322,5.3555652 0.01433309,4.7625709 0.01384286,4.1695831 c 0.25574881,0 0.51149762,0 0.76724643,0 0,-0.5000534 0,-1.0001069 0,-1.5001603 C 0.93733741,2.6193616 1.0299627,2.4772932 1.1973511,2.4355822 1.3143613,2.3249715 1.4736802,2.2646487 1.6228192,2.1881388 1.7608673,2.1083249 1.9261529,2.0645384 2.0616368,1.9746799 2.237528,1.9410814 2.3709244,1.8475262 2.5449002,1.8045808 2.8814578,1.6838112 3.2301872,1.5744521 3.6158472,1.5015858 5.0430628,1.1981325 6.5136562,1.3075257 7.9615483,1.3173013 c 0.7698493,0.02635 1.5318396,0.1909852 2.2389337,0.4016395 0.216826,0.072044 0.432607,0.1462733 0.64698,0.223132 0.192213,0.053268 0.354728,0.1380556 0.54965,0.188802 0.15051,0.073952 0.331901,0.1229342 0.49811,0.183128 0.258701,-0.027065 0.06837,0.3228692 0.177283,0.4122207 0.27872,0 0.557439,0 0.836159,0 0.03565,0.5489585 0.138484,1.0914618 0.110777,1.6459334 0.0064,1.2599173 0.03868,2.5195749 0.159322,3.7740711 0.04197,1.28056 0.0562,2.563742 0.02432,3.844247 -1.081974,-0.0028 -2.16418,-0.01262 -3.2426959,0.08464 -1.5571604,0.07831 -3.1203818,0.04192 -4.6788607,0.04153 z M 7.9840757,9.9580211 C 9.0018059,9.8953361 10.017474,9.7867852 11.038559,9.815172 10.873768,8.3566073 10.951432,6.8840786 10.869749,5.4225765 10.686957,5.1746995 10.973455,4.5321864 10.652929,4.5016539 10.313013,4.4977492 9.9719963,4.5123235 9.6329672,4.4870461 9.7066078,4.2514947 9.4434849,4.320068 9.3237722,4.2192878 9.150985,4.1829038 8.9893231,4.1116329 8.8313372,4.0552611 8.652839,3.9693297 8.4315139,3.9240454 8.2358492,3.8549671 7.6970238,3.686414 7.1002436,3.5307487 6.5029462,3.4853604 5.8741169,3.5330842 5.2255977,3.6915726 4.6627994,3.8779646 4.5080114,3.939041 4.3526203,4.0091874 4.1789113,4.0483483 4.0397507,4.1335006 3.8761599,4.1846781 3.7349744,4.2615206 3.5984361,4.3492525 3.4106559,4.378855 3.3035875,4.4974198 3.1465055,4.562874 3.0034363,4.6502307 2.8874314,4.7598276 c -0.1448611,0.066718 -0.4135588,0.0096 -0.6060857,0.028653 -0.3214167,0.080436 0.00513,0.793434 -0.096737,1.0992348 0.01075,1.3135696 0.029052,2.6263096 0.038787,3.9394073 1.7515297,-0.00339 3.5000261,0.1672234 5.2503319,0.1584525 0.1701377,-0.00848 0.3405628,-0.01715 0.5103481,-0.027554 z M 6.3636933,9.088476 C 5.4528075,9.0143161 4.4500111,8.4928156 4.2546803,7.5274221 3.9563311,6.328395 4.9367126,5.140273 6.0846739,4.8964549 6.6257576,4.6831117 7.1470323,4.9514649 7.5660972,5.2682161 8.3217052,5.5773462 8.8267028,6.382898 8.7190933,7.2009229 8.6447882,8.1729373 7.8304144,9.0969225 6.8187714,9.0975827 6.6672167,9.1015344 6.5146372,9.1049637 6.3636933,9.088476 Z M 6.8763417,7.7714128 C 7.5935004,7.5982832 7.5770335,6.4362306 6.7886333,6.3745523 6.4385934,6.279712 6.0711743,6.030374 5.8578161,6.4438576 5.2507245,6.8401786 5.5598776,7.7567638 6.2745559,7.737843 c 0.1975032,0.047121 0.4000878,0.065616 0.6017858,0.03357 z"
       id="path30" /></g></svg>
